<?xml version="1.0" standalone="no"?>
<!DOCTYPE svg PUBLIC "-//W3C//DTD SVG 20010904//EN"
 "http://www.w3.org/TR/2001/REC-SVG-20010904/DTD/svg10.dtd">
<svg version="1.0" xmlns="http://www.w3.org/2000/svg"
 width="1280.000000pt" height="1144.000000pt" viewBox="0 0 1280.000000 1144.000000"
 preserveAspectRatio="xMidYMid meet">

<g transform="translate(0.000000,1144.000000) scale(0.100000,-0.100000)"
fill="#000000" stroke="none">
<path d="M5985 9854 c-11 -2 -67 -8 -125 -13 -146 -13 -464 -68 -560 -97 -25
-7 -83 -23 -130 -34 -119 -30 -426 -135 -532 -184 -244 -110 -331 -154 -503
-251 -82 -46 -323 -208 -430 -288 -384 -290 -745 -677 -1007 -1077 -318 -487
-519 -983 -639 -1580 -27 -130 -73 -558 -64 -582 6 -13 105 -82 110 -76 2 2 6
39 9 83 27 336 39 445 62 550 8 39 21 102 29 140 61 295 175 627 318 927 136
286 362 642 531 839 17 19 49 58 71 85 182 222 483 499 756 694 81 58 83 60
169 117 223 148 580 323 880 433 210 76 592 171 800 198 183 24 267 34 326 37
34 1 120 6 190 10 145 7 410 -7 607 -32 73 -9 153 -17 180 -17 26 -1 47 -4 47
-8 0 -4 10 -8 23 -7 29 0 109 -17 169 -37 26 -8 52 -13 56 -10 5 3 35 -3 66
-14 33 -12 67 -18 84 -14 18 4 23 3 14 -4 -10 -7 -5 -11 18 -16 44 -8 60 -6
30 5 -20 7 -18 8 14 4 21 -2 48 1 59 7 19 10 16 12 -28 29 -39 15 -52 16 -64
6 -12 -10 -14 -9 -8 6 5 15 2 16 -21 11 -22 -4 -24 -3 -12 6 12 9 9 10 -13 5
-17 -3 -26 -2 -23 4 6 10 -43 26 -52 16 -3 -3 1 -5 8 -5 7 0 11 -3 7 -6 -6 -6
-79 17 -87 28 -10 13 -332 76 -510 99 -74 9 -786 21 -825 13z m1615 -204 c0
-13 -20 -13 -40 0 -12 8 -9 10 13 10 15 0 27 -4 27 -10z"/>
<path d="M6120 9703 c-86 -5 -251 -21 -290 -28 -19 -3 -66 -10 -105 -16 -150
-21 -205 -31 -330 -61 -141 -33 -261 -65 -285 -77 -8 -4 -45 -16 -82 -26 -36
-11 -64 -24 -61 -29 3 -5 1 -6 -5 -2 -12 7 -148 -42 -249 -90 -28 -13 -54 -24
-57 -24 -8 0 -241 -113 -246 -120 -3 -3 -24 -14 -47 -24 -23 -10 -40 -23 -36
-29 3 -6 1 -7 -4 -4 -9 6 -91 -36 -163 -82 -90 -58 -282 -189 -306 -210 -17
-14 -60 -48 -95 -76 -105 -82 -208 -172 -314 -275 -103 -99 -258 -265 -285
-304 -15 -21 -35 -45 -75 -90 -11 -12 -31 -39 -45 -59 -14 -20 -28 -37 -32
-37 -4 0 -5 -7 -1 -15 3 -9 1 -15 -6 -13 -6 2 -19 -9 -28 -24 -10 -14 -49 -73
-87 -130 -38 -57 -79 -119 -91 -138 -12 -19 -30 -48 -40 -65 -46 -73 -215
-404 -215 -420 0 -2 -13 -33 -29 -67 -15 -35 -38 -92 -51 -128 -12 -36 -28
-78 -36 -95 -7 -16 -25 -70 -40 -120 -14 -49 -30 -101 -36 -115 -6 -14 -23
-79 -39 -145 -15 -66 -32 -138 -38 -160 -13 -51 -63 -388 -66 -440 0 -22 -4
-56 -8 -75 -3 -19 -9 -92 -12 -162 l-6 -126 73 -59 c121 -96 154 -120 246
-179 48 -31 98 -64 112 -73 45 -30 266 -136 355 -170 57 -21 225 -60 312 -72
50 -7 134 -9 195 -6 l106 6 12 -87 c20 -157 51 -246 106 -306 21 -22 24 -30
13 -37 -48 -29 -368 -33 -499 -5 -244 52 -516 184 -785 380 -38 28 -75 55 -82
61 -7 5 -18 15 -25 20 -8 6 -41 33 -73 60 -102 87 -270 205 -291 205 -2 0 -41
18 -85 40 -67 33 -175 70 -204 70 -8 0 5 -112 15 -125 4 -5 8 -39 9 -75 1 -36
4 -96 7 -135 7 -69 6 -69 -25 -96 -32 -26 -32 -27 -22 -80 5 -30 6 -55 1 -57
-4 -2 -4 -17 0 -35 5 -18 11 -67 15 -109 5 -57 10 -78 21 -78 17 0 18 -12 2
-28 -9 -9 -7 -13 6 -18 12 -4 15 -13 10 -28 -4 -11 -3 -18 0 -15 13 13 356
-115 356 -133 0 -4 7 -8 15 -8 27 0 45 -33 86 -155 69 -207 148 -397 161 -389
4 3 5 -1 3 -9 -3 -7 3 -22 15 -32 11 -10 20 -25 20 -34 1 -13 3 -13 15 3 13
17 15 17 15 4 0 -9 -4 -20 -10 -23 -5 -3 -10 -11 -10 -16 0 -6 5 -7 12 -3 8 5
9 2 5 -9 -3 -10 -3 -17 2 -17 5 0 12 11 15 25 6 24 26 36 26 15 0 -5 -4 -10
-10 -10 -5 0 -10 -12 -9 -27 0 -27 1 -27 9 -5 12 29 30 29 23 0 -4 -22 -4 -23
11 -4 16 19 16 19 16 -3 0 -12 4 -20 9 -16 5 3 12 -3 14 -12 3 -10 5 -1 4 19
-1 20 -4 35 -8 33 -3 -3 -6 7 -6 22 0 15 -6 29 -12 31 -6 2 -11 9 -11 15 0 26
-33 96 -43 90 -6 -3 -7 -1 -3 6 4 6 -13 71 -37 144 -47 138 -63 197 -53 197
15 0 74 -72 80 -96 12 -45 153 -374 165 -384 4 -3 19 -32 34 -65 15 -33 31
-59 37 -57 5 1 11 -10 11 -25 l1 -28 8 30 c8 31 11 25 15 -36 1 -15 5 -34 8
-43 9 -22 36 -9 30 15 -6 23 9 25 27 4 7 -8 19 -15 26 -15 12 0 19 -25 15 -55
-1 -5 4 -3 11 5 15 17 88 25 88 10 0 -6 -8 -10 -17 -11 -30 -1 39 -28 73 -29
63 0 94 -11 94 -32 0 -17 3 -18 15 -8 9 7 26 9 46 5 20 -5 27 -10 20 -15 -16
-9 100 -40 174 -45 61 -5 130 -18 136 -27 9 -13 179 -22 179 -9 0 6 18 11 40
11 22 0 40 -4 40 -10 0 -5 18 -10 40 -10 29 0 40 4 40 15 0 8 -10 16 -22 17
-13 0 6 5 42 9 114 13 154 20 182 34 15 7 30 9 33 5 3 -5 17 -4 30 2 13 6 22
15 19 19 -3 5 0 9 5 9 6 0 11 7 11 16 0 11 6 13 19 9 11 -3 22 -1 26 5 3 5 17
10 31 10 13 0 33 9 44 20 11 11 28 20 38 20 10 0 26 13 35 30 10 16 31 43 48
60 17 17 29 36 26 43 -3 7 3 13 13 13 9 0 17 -7 16 -15 -1 -7 5 -16 12 -18 26
-10 10 31 -40 95 -29 37 -55 69 -59 72 -3 3 -14 20 -24 37 -19 33 -19 33 4 54
l23 21 30 -28 c17 -16 46 -45 65 -64 19 -19 32 -27 29 -18 -3 10 -1 20 4 23 6
4 10 13 10 22 0 8 9 26 20 40 15 19 17 30 10 43 -14 27 -12 40 5 34 24 -10 19
49 -7 78 -29 32 -45 56 -59 87 -11 27 -49 247 -74 430 -8 62 -18 118 -22 124
-4 6 -7 27 -8 46 -3 47 -35 265 -47 314 -12 50 -72 115 -166 180 -40 29 -67
53 -60 56 25 8 77 53 75 64 -1 6 5 11 13 12 9 0 16 11 18 28 2 15 9 27 16 27
7 0 18 18 25 40 10 34 9 44 -8 77 -10 21 -40 59 -66 85 -28 29 -44 52 -39 60
10 16 65 64 117 101 23 17 46 34 52 39 33 27 101 66 185 105 133 62 127 59
205 84 39 12 74 26 79 31 6 4 24 9 40 9 l31 2 -35 7 c-22 5 -28 8 -15 10 11 1
23 2 26 2 11 -2 16 32 8 58 -4 14 -7 19 -8 11 -1 -8 -4 -11 -7 -8 -4 4 -2 13
5 20 8 11 7 23 -5 52 -8 21 -14 59 -13 84 1 25 2 76 1 114 -2 60 -4 67 -22 67
-11 0 -20 6 -20 14 0 9 -17 16 -47 21 -27 4 -53 11 -60 16 -7 7 -10 39 -8 96
3 65 1 89 -10 100 -20 19 -20 73 0 73 23 0 6 28 -22 35 -14 3 -23 8 -20 12 3
3 2 15 -3 27 -7 20 -5 22 23 19 23 -2 16 2 -23 16 -30 10 -59 15 -65 11 -5 -4
-36 -16 -67 -26 -31 -9 -55 -21 -52 -26 3 -4 -2 -5 -11 -2 -9 4 -25 -2 -36
-12 -12 -11 -24 -18 -28 -18 -14 4 -214 -113 -231 -135 -3 -3 -21 -19 -40 -34
-137 -111 -287 -293 -367 -447 -87 -170 -112 -242 -113 -330 0 -25 -4 -52 -9
-59 -11 -18 -14 -7 -31 114 -6 44 -20 139 -32 210 -18 114 -19 139 -9 203 47
277 239 576 516 798 82 66 257 166 350 199 28 10 54 22 60 27 5 4 16 8 24 8 8
0 49 33 90 73 113 107 192 177 202 177 5 0 9 3 9 8 0 4 14 16 30 27 16 11 30
26 30 33 0 6 3 11 8 10 4 -2 38 17 75 41 49 32 66 49 62 60 -5 12 -3 13 6 4 9
-9 26 -1 75 32 35 24 93 58 129 75 36 17 63 35 60 40 -3 4 3 6 13 3 11 -2 26
3 35 11 8 9 23 16 31 16 9 0 15 5 14 11 -2 6 3 14 10 16 6 3 12 0 12 -7 0 -8
6 -8 20 0 11 6 18 15 15 20 -3 4 4 6 15 3 11 -3 20 -1 20 5 0 5 16 13 35 16
19 4 35 11 35 16 0 6 8 9 18 8 9 -1 26 0 37 1 15 1 17 3 7 10 -15 9 70 36 102
32 11 -2 16 2 11 9 -4 7 1 10 17 8 12 -1 44 2 71 6 41 7 46 10 35 24 -12 14
-10 14 11 2 20 -10 26 -10 35 2 13 17 50 33 41 17 -8 -13 64 -1 82 13 7 5 17
7 23 3 5 -3 31 -3 56 1 26 4 41 10 34 14 -6 4 10 7 37 7 51 0 335 20 391 27
18 3 32 0 32 -6 0 -6 13 -8 34 -4 18 4 45 2 60 -4 21 -8 26 -7 26 5 0 10 -10
15 -27 15 -54 0 -15 9 62 14 44 3 85 6 90 6 6 1 0 5 -12 10 -15 6 -20 15 -16
30 4 16 2 19 -13 14 -11 -4 -23 -10 -29 -15 -5 -4 -21 -9 -35 -12 -18 -3 -14
-5 14 -6 50 -1 44 -7 -18 -16 -42 -6 -48 -4 -43 9 4 10 1 16 -8 16 -8 0 -15
-4 -15 -8 0 -5 -8 -10 -17 -11 -36 -6 -139 0 -168 8 -21 6 -6 7 50 5 54 -3 73
-1 59 5 -16 7 -19 16 -16 45 l4 36 59 0 c33 0 59 -4 59 -10 0 -5 10 -11 23
-11 12 -1 -9 -5 -47 -10 -38 -4 -76 -14 -84 -22 -13 -13 -4 -15 72 -15 84 0
86 0 86 23 0 20 7 25 35 31 19 3 39 12 46 20 6 8 22 14 35 14 13 0 24 4 24 9
0 11 -59 33 -70 26 -5 -3 -6 5 -2 17 4 18 2 20 -16 16 -12 -3 -23 -1 -26 6 -3
7 -5 7 -5 -1 -1 -7 -6 -13 -11 -13 -6 0 -10 6 -9 13 3 23 -13 56 -30 60 -14 4
-14 5 2 6 10 0 21 -8 25 -19 5 -14 11 -17 22 -10 9 6 11 13 5 18 -10 7 -12 15
-20 87 -4 34 -3 36 3 10 5 -17 14 -40 20 -50 10 -16 11 -12 6 25 -3 25 -1 56
5 70 9 20 10 16 5 -25 -4 -27 -4 -47 0 -44 3 3 9 37 12 75 3 38 9 85 13 104 5
19 9 44 9 55 3 74 16 165 24 165 5 0 6 10 3 21 -5 15 -4 19 4 15 7 -5 11 6 11
31 0 30 -3 35 -11 23 -13 -18 -9 -5 11 33 11 22 11 33 2 47 -12 21 -6 50 10
50 6 0 5 -7 -2 -15 -10 -12 -10 -19 -2 -27 9 -9 12 -8 12 6 0 14 5 17 23 13
69 -17 117 -19 117 -6 1 9 4 8 11 -4 6 -9 15 -15 20 -11 5 3 17 0 26 -8 9 -7
39 -12 74 -12 32 0 57 -2 55 -5 -2 -3 12 -7 32 -8 21 -2 65 -8 99 -15 60 -11
62 -13 56 -37 -3 -14 -13 -36 -21 -48 -13 -21 -13 -23 2 -23 9 0 16 8 16 19 0
10 7 21 15 25 8 3 15 12 15 21 0 8 5 15 10 15 6 0 10 -8 10 -18 0 -15 6 -18
30 -14 18 3 30 0 30 -7 0 -6 7 -11 15 -11 11 0 15 11 15 38 0 55 11 66 60 59
31 -4 50 0 74 14 21 13 25 19 14 19 -23 0 -23 26 -1 38 12 7 16 22 15 51 -2
35 1 41 18 41 11 0 20 -4 20 -10 0 -21 39 -10 42 13 3 19 8 22 43 20 22 -1 32
1 23 3 -10 3 -18 9 -18 13 0 4 -16 13 -35 20 -19 7 -35 17 -35 22 0 14 20 11
21 -3 0 -7 4 -3 9 10 11 27 70 33 70 6 0 -8 5 -12 11 -9 6 4 8 13 5 20 -3 8 0
16 7 19 7 3 -4 3 -23 0 -19 -3 -46 -1 -60 5 -21 8 -18 9 18 4 46 -6 50 -3 26
21 -17 18 -39 22 -29 6 11 -18 -25 -10 -44 9 -11 11 -36 23 -56 27 -27 5 -33
9 -23 16 8 6 1 7 -21 3 -21 -5 -31 -4 -27 3 7 12 -116 38 -159 33 -16 -1 -27
1 -23 5 13 12 -101 46 -133 39 -16 -4 -29 -2 -29 3 0 12 -172 35 -194 26 -9
-3 -16 -2 -16 4 0 9 -60 20 -155 28 -27 2 -99 8 -160 14 -104 8 -356 10 -475
3z m1077 -89 c-3 -3 -12 -4 -19 -1 -8 3 -5 6 6 6 11 1 17 -2 13 -5z m98 -54
c3 -5 1 -10 -4 -10 -6 0 -11 5 -11 10 0 6 2 10 4 10 3 0 8 -4 11 -10z m70 -9
c-3 -6 -11 -11 -16 -11 -5 0 -4 6 3 14 14 16 24 13 13 -3z m-58 -17 c-3 -3
-12 -4 -19 -1 -8 3 -5 6 6 6 11 1 17 -2 13 -5z m180 -10 c-3 -3 -12 -4 -19 -1
-8 3 -5 6 6 6 11 1 17 -2 13 -5z m89 -47 c-3 -7 -9 -20 -12 -29 -8 -24 -25
-23 -31 1 -3 12 -11 17 -19 14 -8 -3 -14 -1 -14 4 0 15 6 18 45 20 25 1 34 -2
31 -10z m-101 -27 c3 -5 -3 -10 -14 -10 -12 0 -21 5 -21 10 0 6 6 10 14 10 8
0 18 -4 21 -10z m-74 -60 c28 0 39 -4 39 -15 0 -11 -11 -15 -40 -15 -38 0 -40
-2 -40 -30 l0 -30 -75 0 -75 0 0 -30 0 -30 75 0 c78 0 96 -12 55 -38 -14 -8
-20 -23 -20 -47 0 -42 -23 -47 -61 -14 -13 11 -31 25 -39 30 -13 8 -12 11 4
24 19 15 19 15 -1 15 -17 0 -22 7 -25 40 -5 54 6 70 47 70 28 0 35 4 35 20 0
14 -7 20 -22 20 -18 0 -19 3 -10 13 16 15 106 36 110 25 2 -4 21 -8 43 -8z
m169 -16 c0 -8 -10 -14 -25 -14 -23 0 -34 18 -19 32 10 10 44 -4 44 -18z
m-889 -117 c-10 -9 -11 -8 -5 6 3 10 9 15 12 12 3 -3 0 -11 -7 -18z m784 13
c-3 -5 -10 -10 -16 -10 -5 0 -9 5 -9 10 0 6 7 10 16 10 8 0 12 -4 9 -10z
m-485 -44 c0 -3 -4 -8 -10 -11 -5 -3 -10 -1 -10 4 0 6 5 11 10 11 6 0 10 -2
10 -4z m-824 -20 c22 -7 45 -11 53 -8 8 2 11 0 7 -6 -3 -5 1 -13 10 -16 10 -4
13 -2 8 6 -4 6 11 -3 34 -22 23 -18 42 -38 42 -43 0 -5 7 -6 16 -3 8 3 12 2 9
-4 -10 -17 6 -34 17 -19 8 11 9 11 5 -1 -6 -20 11 -52 23 -45 6 3 7 -1 4 -10
-4 -8 -2 -21 4 -28 11 -15 21 -54 32 -130 9 -59 -6 -167 -22 -167 -4 0 -8 -8
-8 -17 0 -23 -29 -68 -72 -114 -18 -20 -32 -42 -30 -48 2 -6 -1 -11 -7 -11 -6
0 -11 5 -11 12 0 7 -7 5 -17 -5 -10 -8 -31 -19 -46 -23 -16 -3 -24 -9 -19 -13
6 -3 -15 -6 -45 -7 -36 0 -57 -5 -64 -15 -5 -7 -9 -9 -9 -3 0 7 -40 9 -128 6
l-129 -5 -7 69 c-4 38 -9 98 -11 134 -2 36 -9 146 -15 245 -6 98 -15 197 -20
220 -6 25 -5 44 1 50 9 10 199 30 305 34 28 0 69 -5 90 -13z m861 -2 c-3 -3
-12 -4 -19 -1 -8 3 -5 6 6 6 11 1 17 -2 13 -5z m103 -4 c0 -5 -2 -10 -4 -10
-3 0 -8 5 -11 10 -3 6 -1 10 4 10 6 0 11 -4 11 -10z m25 0 c3 -5 1 -10 -4 -10
-6 0 -11 5 -11 10 0 6 2 10 4 10 3 0 8 -4 11 -10z m-68 -6 c-3 -3 -12 -4 -19
-1 -8 3 -5 6 6 6 11 1 17 -2 13 -5z m121 -25 c2 -23 2 -23 -13 -5 -18 24 -20
39 -2 34 6 -3 13 -15 15 -29z m-215 14 c-7 -2 -19 -2 -25 0 -7 3 -2 5 12 5 14
0 19 -2 13 -5z m130 -10 c-7 -2 -19 -2 -25 0 -7 3 -2 5 12 5 14 0 19 -2 13 -5z
m-1859 -178 c23 -28 56 -70 75 -93 18 -23 37 -39 42 -36 5 3 6 -1 4 -8 -6 -15
39 -60 50 -50 4 4 5 2 4 -3 -6 -21 43 -90 55 -78 3 4 6 -1 6 -10 0 -9 3 -17 8
-17 4 0 15 -14 25 -32 15 -26 20 -29 29 -17 8 11 9 11 4 -3 -3 -11 7 -30 28
-53 18 -19 31 -35 29 -35 -3 0 16 -24 42 -54 28 -33 42 -57 35 -61 -6 -3 -8
-10 -5 -15 3 -5 0 -12 -6 -16 -8 -4 -9 -3 -5 4 9 15 7 15 -65 -5 l-62 -17 -26
30 c-14 16 -42 49 -61 72 -31 38 -40 42 -63 37 -15 -4 -24 -11 -21 -16 3 -5
-4 -9 -16 -9 -12 0 -29 -4 -39 -10 -10 -5 -31 -12 -47 -15 -47 -10 -48 -10
-61 -18 -7 -4 -11 -40 -12 -94 -1 -98 -5 -105 -71 -122 -88 -24 -84 -27 -81
69 10 300 28 680 33 685 11 11 103 43 117 42 8 -1 33 -25 55 -52z m1203 -57
c-3 -8 -6 -5 -6 6 -1 11 2 17 5 13 3 -3 4 -12 1 -19z m14 -105 c2 -23 0 -45
-3 -48 -3 -4 -8 18 -10 49 -1 30 0 52 4 48 4 -4 8 -26 9 -49z m-29 -50 c-3
-16 -7 -22 -10 -15 -4 13 4 42 11 42 2 0 2 -12 -1 -27z m158 13 c0 -3 -4 -8
-10 -11 -5 -3 -10 -1 -10 4 0 6 5 11 10 11 6 0 10 -2 10 -4z m-33 -38 c-3 -7
-5 -2 -5 12 0 14 2 19 5 13 2 -7 2 -19 0 -25z m40 -43 c-13 -13 -17 -13 -27 1
-7 8 -10 17 -6 21 3 3 6 1 6 -5 0 -27 18 -9 26 26 l8 37 4 -33 c2 -19 -3 -38
-11 -47z m-2036 18 c178 -259 359 -537 359 -551 0 -16 -95 -82 -117 -82 -8 0
-133 179 -142 204 -2 6 -22 34 -43 62 -21 28 -38 56 -38 62 0 7 -5 12 -10 12
-12 0 -4 -145 14 -255 12 -72 10 -109 -4 -100 -4 3 -13 -2 -20 -10 -14 -17
-66 -20 -75 -5 -4 6 -28 21 -53 34 -26 12 -86 44 -134 70 -49 26 -88 45 -88
42 0 -6 165 -251 189 -281 48 -60 47 -86 -3 -112 -17 -8 -40 -24 -52 -35 -19
-17 -22 -17 -34 -3 -7 8 -15 13 -19 10 -4 -2 -7 6 -7 18 1 15 -4 21 -14 19 -8
-2 -12 -1 -8 3 5 6 -105 182 -211 335 -83 121 -131 196 -131 205 0 10 101 77
133 88 9 4 17 3 17 -2 0 -5 14 -14 31 -21 17 -7 47 -24 66 -37 20 -13 42 -22
50 -19 8 3 12 2 9 -2 -3 -5 12 -18 32 -29 20 -11 68 -37 105 -58 38 -20 70
-35 72 -33 3 2 0 42 -6 89 -31 266 -38 343 -32 350 17 14 118 79 125 79 3 0
21 -21 39 -47z m1906 0 c-3 -10 -5 -4 -5 12 0 17 2 24 5 18 2 -7 2 -21 0 -30z
m-37 -78 c0 -8 -4 -15 -10 -15 -5 0 -10 7 -10 15 0 8 5 15 10 15 6 0 10 -7 10
-15z m-40 -8 c0 -19 -37 -60 -44 -49 -3 4 4 15 15 22 10 8 19 20 19 27 0 7 2
13 5 13 3 0 5 -6 5 -13z m70 -12 c-7 -9 -15 -13 -17 -11 -6 6 20 36 26 30 2
-2 -2 -10 -9 -19z m98 -60 c-9 -9 -30 14 -23 25 6 9 10 8 17 -4 6 -10 8 -19 6
-21z m-167 1 c5 3 9 1 9 -4 0 -6 -11 -9 -24 -8 -19 1 -22 4 -13 15 8 9 12 10
15 2 2 -6 8 -9 13 -5z m49 -1 c0 -8 -4 -15 -10 -15 -5 0 -7 7 -4 15 4 8 8 15
10 15 2 0 4 -7 4 -15z m27 -7 c-3 -8 -6 -5 -6 6 -1 11 2 17 5 13 3 -3 4 -12 1
-19z m-148 -30 c-15 -30 -24 -38 -16 -15 4 10 1 17 -6 17 -8 0 -6 4 3 10 25
16 31 11 19 -12z m231 -44 c0 -8 -7 -14 -15 -14 -17 0 -18 -4 -9 -37 7 -27 24
-20 24 9 0 12 3 18 7 15 3 -4 12 -2 20 4 10 9 13 8 13 -5 0 -10 5 -14 10 -11
6 3 10 1 10 -5 0 -7 8 -9 20 -5 11 4 20 2 20 -4 0 -6 -4 -11 -10 -11 -5 0 -10
-7 -10 -15 0 -8 -9 -15 -20 -15 -11 0 -20 7 -20 15 0 10 -8 14 -22 11 -13 -1
-23 -9 -23 -16 0 -7 -7 -15 -15 -17 -13 -4 -13 -3 0 6 11 8 -3 11 -57 11 l-71
0 7 28 c9 33 35 36 39 5 2 -15 10 -23 23 -23 10 0 19 3 19 8 0 4 3 17 6 30 5
17 2 22 -12 23 -15 0 -15 2 -4 6 8 3 18 12 22 19 10 16 48 6 48 -12z m-281 12
c-2 -2 -15 -9 -29 -15 -24 -11 -24 -11 -6 3 16 13 49 24 35 12z m41 -16 c0 -5
-2 -10 -4 -10 -3 0 -8 5 -11 10 -3 6 -1 10 4 10 6 0 11 -4 11 -10z m70 1 c0
-12 -28 -22 -34 -12 -3 5 -3 11 1 15 9 9 33 7 33 -3z m-665 -29 c-3 -3 -11 0
-18 7 -9 10 -8 11 6 5 10 -3 15 -9 12 -12z m682 -24 c-3 -7 -5 -2 -5 12 0 14
2 19 5 13 2 -7 2 -19 0 -25z m-566 -11 c-5 -5 -19 -7 -32 -4 -22 4 -22 4 3 6
21 1 26 5 22 19 -5 14 -4 15 5 2 5 -8 6 -19 2 -23z m184 24 l30 -7 -39 -7
c-22 -3 -42 -4 -45 -2 -2 3 4 6 15 7 10 0 -3 4 -31 8 l-50 7 45 0 c25 0 59 -2
75 -6z m295 -1 c0 -5 -2 -10 -4 -10 -3 0 -8 5 -11 10 -3 6 -1 10 4 10 6 0 11
-4 11 -10z m-590 -4 c0 -3 -4 -8 -10 -11 -5 -3 -10 -1 -10 4 0 6 5 11 10 11 6
0 10 -2 10 -4z m35 -26 c3 -6 -1 -7 -9 -4 -18 7 -21 14 -7 14 6 0 13 -4 16
-10z m335 6 c0 -3 -4 -8 -10 -11 -5 -3 -10 -1 -10 4 0 6 5 11 10 11 6 0 10 -2
10 -4z m385 -76 c4 -6 -9 -10 -32 -9 -34 1 -35 2 -13 9 35 11 38 11 45 0z
m-230 -50 c-11 -5 -38 -8 -60 -8 l-40 1 45 7 c64 10 78 10 55 0z m54 -20 c-8
-5 -47 -11 -85 -14 l-69 -5 60 9 c33 6 64 12 70 14 5 2 17 5 25 5 13 0 13 -1
-1 -9z m148 -6 c-3 -3 -12 -4 -19 -1 -8 3 -5 6 6 6 11 1 17 -2 13 -5z m-1514
-39 c-3 -9 -8 -14 -10 -11 -3 3 -2 9 2 15 9 16 15 13 8 -4z m790 -22 c-7 -2
-19 -2 -25 0 -7 3 -2 5 12 5 14 0 19 -2 13 -5z m104 1 c-3 -3 -12 -4 -19 -1
-8 3 -5 6 6 6 11 1 17 -2 13 -5z m-240 -50 c-3 -3 -12 -4 -19 -1 -8 3 -5 6 6
6 11 1 17 -2 13 -5z m-182 -64 c3 -6 -1 -7 -9 -4 -18 7 -21 14 -7 14 6 0 13
-4 16 -10z m-1020 -300 c-3 -5 -12 -10 -18 -10 -7 0 -6 4 3 10 19 12 23 12 15
0z m125 -244 c0 -2 -7 -7 -16 -10 -8 -3 -12 -2 -9 4 6 10 25 14 25 6z m-70
-3537 c0 -5 -4 -9 -10 -9 -5 0 -10 7 -10 16 0 8 5 12 10 9 6 -3 10 -10 10 -16z
m-1977 -223 c4 -10 1 -13 -9 -9 -15 6 -19 23 -5 23 5 0 11 -7 14 -14z m242
-152 c-9 -7 -14 -17 -10 -23 3 -6 1 -11 -4 -11 -6 0 -11 10 -11 23 0 16 6 23
21 23 18 0 19 -1 4 -12z m-17 -75 c-3 -8 -7 -3 -11 10 -4 17 -3 21 5 13 5 -5
8 -16 6 -23z m822 -194 c0 -8 -4 -15 -10 -15 -5 0 -10 4 -10 9 0 6 -15 12 -32
14 -29 3 -27 4 10 5 31 2 42 -2 42 -13z m50 -5 c0 -5 -9 -10 -20 -10 -11 0
-20 5 -20 10 0 6 9 10 20 10 11 0 20 -4 20 -10z"/>
<path d="M7250 9172 c0 -5 7 -9 15 -9 8 0 15 4 15 9 0 4 -7 8 -15 8 -8 0 -15
-4 -15 -8z"/>
<path d="M5936 8948 c3 -68 8 -130 12 -138 3 -8 6 -31 7 -50 1 -19 2 -59 3
-87 l2 -53 53 0 c53 1 162 32 162 47 0 4 5 7 12 5 7 -2 13 2 13 7 0 5 -8 12
-17 14 -10 2 -8 3 5 2 28 -3 47 26 29 44 -9 10 -8 12 8 9 14 -2 20 2 19 14 -1
10 2 16 6 13 4 -2 8 22 9 55 1 42 -4 71 -18 97 -10 21 -20 43 -21 48 -5 20
-37 53 -71 74 -28 17 -50 21 -127 21 l-93 0 7 -122z m241 -40 c-3 -8 -6 -5 -6
6 -1 11 2 17 5 13 3 -3 4 -12 1 -19z"/>
<path d="M5201 8718 c1 -105 4 -128 16 -128 8 0 11 4 8 10 -3 6 1 7 10 4 8 -4
21 -1 29 5 8 6 32 17 55 24 l41 12 -66 85 c-102 133 -95 134 -93 -12z"/>
<path d="M7631 9637 c-29 -15 -29 -31 0 -35 13 -2 19 0 15 7 -4 6 -3 11 2 11
6 0 12 7 16 15 7 18 -1 19 -33 2z"/>
<path d="M7683 9623 c-28 -5 -28 -8 -4 -32 12 -12 27 -17 40 -14 13 3 21 1 21
-7 0 -7 7 -10 15 -6 9 3 15 0 15 -8 0 -14 21 -26 43 -26 6 0 2 7 -9 16 -21 17
-20 17 64 -2 21 -5 25 -4 15 6 -6 7 -23 13 -38 13 -18 0 -25 4 -21 13 7 17 2
17 -25 2 -17 -11 -23 -10 -26 0 -3 6 -9 10 -13 7 -5 -3 -11 -1 -15 5 -3 5 -1
10 4 10 6 0 11 5 11 10 0 6 -12 8 -27 4 -22 -4 -25 -3 -13 5 13 10 13 11 0 9
-8 0 -25 -3 -37 -5z m44 -29 c-3 -3 -12 -4 -19 -1 -8 3 -5 6 6 6 11 1 17 -2
13 -5z"/>
<path d="M7947 9529 c7 -7 15 -10 18 -7 3 3 -2 9 -12 12 -14 6 -15 5 -6 -5z"/>
<path d="M7888 9523 c6 -2 18 -2 25 0 6 3 1 5 -13 5 -14 0 -19 -2 -12 -5z"/>
<path d="M7980 9496 c0 -2 7 -7 16 -10 8 -3 12 -2 9 4 -6 10 -25 14 -25 6z"/>
<path d="M7680 9481 c0 -10 50 -25 57 -18 2 3 -10 9 -26 15 -17 6 -31 7 -31 3z"/>
<path d="M8045 9480 c-16 -7 -17 -9 -3 -9 9 -1 20 4 23 9 7 11 7 11 -20 0z"/>
<path d="M7718 9444 c-8 -8 3 -44 13 -44 6 0 12 7 15 15 4 8 14 15 23 16 12 0
12 2 -4 9 -24 10 -40 12 -47 4z"/>
<path d="M8110 9430 c8 -5 20 -10 25 -10 6 0 3 5 -5 10 -8 5 -19 10 -25 10 -5
0 -3 -5 5 -10z"/>
<path d="M7823 9415 c18 -13 18 -14 0 -24 -10 -6 -13 -11 -6 -11 6 0 14 4 18
9 3 5 20 8 38 7 17 -2 21 -1 8 1 -20 4 -22 7 -10 14 10 8 7 8 -10 4 -13 -4
-21 -3 -18 2 3 5 -4 10 -16 10 -21 2 -21 1 -4 -12z"/>
<path d="M8210 9420 c0 -5 5 -10 11 -10 5 0 7 5 4 10 -3 6 -8 10 -11 10 -2 0
-4 -4 -4 -10z"/>
<path d="M7775 9410 c-3 -5 -1 -10 4 -10 6 0 11 5 11 10 0 6 -2 10 -4 10 -3 0
-8 -4 -11 -10z"/>
<path d="M7696 9383 c-11 -11 -6 -23 9 -23 8 0 15 4 15 9 0 13 -16 22 -24 14z"/>
<path d="M7911 9376 c-9 -11 -8 -15 5 -20 23 -9 34 -7 34 5 0 6 -7 8 -16 5
-14 -5 -15 -4 -4 9 7 8 8 15 2 15 -5 0 -15 -6 -21 -14z"/>
<path d="M7750 9370 c0 -5 7 -7 15 -4 8 4 15 8 15 10 0 2 -7 4 -15 4 -8 0 -15
-4 -15 -10z"/>
<path d="M7970 9346 c0 -2 9 -6 20 -9 11 -3 18 -1 14 4 -5 9 -34 13 -34 5z"/>
<path d="M8052 9321 c-11 -7 -11 -9 0 -14 9 -3 15 1 15 9 0 8 -1 14 -1 14 -1
0 -7 -4 -14 -9z"/>
<path d="M8080 9316 c0 -2 7 -6 15 -10 8 -3 15 -1 15 4 0 6 -7 10 -15 10 -8 0
-15 -2 -15 -4z"/>
<path d="M8110 9278 c0 -11 22 -10 39 1 10 7 7 9 -12 8 -15 -1 -27 -5 -27 -9z"/>
<path d="M7560 9270 c0 -13 11 -13 30 0 12 8 11 10 -7 10 -13 0 -23 -4 -23
-10z"/>
<path d="M8151 9261 c-8 -5 -9 -11 -3 -15 5 -3 12 1 16 9 6 17 6 18 -13 6z"/>
<path d="M8090 9250 c20 -13 33 -13 25 0 -3 6 -14 10 -23 10 -15 0 -15 -2 -2
-10z"/>
<path d="M8186 9251 c-4 -5 3 -7 14 -4 23 6 26 13 6 13 -8 0 -17 -4 -20 -9z"/>
<path d="M8285 9210 c3 -5 11 -10 16 -10 6 0 7 5 4 10 -3 6 -11 10 -16 10 -6
0 -7 -4 -4 -10z"/>
<path d="M8338 9193 c6 -2 10 -9 6 -14 -3 -5 -1 -9 5 -9 17 0 21 18 5 24 -9 3
-19 6 -22 5 -4 0 -1 -3 6 -6z"/>
<path d="M8218 9183 c7 -3 16 -2 19 1 4 3 -2 6 -13 5 -11 0 -14 -3 -6 -6z"/>
<path d="M8375 9150 c3 -5 11 -10 16 -10 6 0 7 5 4 10 -3 6 -11 10 -16 10 -6
0 -7 -4 -4 -10z"/>
<path d="M7246 9055 c-3 -9 0 -15 9 -15 8 0 15 7 15 15 0 8 -4 15 -9 15 -5 0
-11 -7 -15 -15z"/>
<path d="M6840 9029 c0 -9 -3 -24 -6 -32 -3 -8 3 -22 12 -31 16 -17 16 -17 -2
-14 -13 2 -20 -4 -22 -20 -2 -14 1 -22 10 -20 7 2 12 -3 11 -9 -2 -7 2 -13 7
-13 18 0 11 38 -7 42 -10 2 12 5 50 6 39 1 67 -2 67 -8 0 -5 18 -10 39 -10 41
0 59 -18 38 -39 -8 -8 -7 -11 5 -11 9 0 18 7 22 15 4 11 22 15 71 15 66 0 72
3 56 29 -7 11 -32 15 -97 14 -57 0 -80 3 -65 9 12 4 19 12 16 18 -9 15 -62 12
-79 -5 -19 -19 -31 -19 -52 2 -15 16 -17 16 -30 -2 -12 -16 -14 -16 -14 -3 0
9 4 18 9 20 5 2 11 10 13 18 2 8 7 18 12 21 16 12 -4 28 -34 27 -22 -1 -30 -6
-30 -19z m183 -66 c-7 -2 -19 -2 -25 0 -7 3 -2 5 12 5 14 0 19 -2 13 -5z"/>
<path d="M6923 9023 c-17 -6 -16 -31 0 -47 11 -11 16 -11 31 0 11 7 15 18 10
25 -5 8 -2 11 8 6 62 -23 102 -31 106 -19 2 7 10 12 19 12 12 0 12 -2 -2 -16
-21 -21 -13 -29 14 -14 14 7 21 7 21 0 0 -5 10 -10 23 -9 21 0 21 1 2 9 -19 8
-17 11 15 14 8 0 16 10 18 21 2 12 0 16 -5 10 -8 -11 -137 -13 -163 -2 -23 9
-83 16 -97 10z m27 -23 c0 -5 -4 -10 -10 -10 -5 0 -10 5 -10 10 0 6 5 10 10
10 6 0 10 -4 10 -10z"/>
<path d="M7201 9014 c0 -11 3 -14 6 -6 3 7 2 16 -1 19 -3 4 -6 -2 -5 -13z"/>
<path d="M7180 8969 c0 -5 5 -7 10 -4 6 3 10 8 10 11 0 2 -4 4 -10 4 -5 0 -10
-5 -10 -11z"/>
<path d="M7856 8948 c3 -4 18 -6 33 -5 16 1 27 4 24 7 -7 8 -62 6 -57 -2z"/>
<path d="M6873 8915 c-3 -9 -4 -17 -2 -19 5 -5 84 -9 134 -7 34 1 37 3 22 12
-11 6 -37 8 -61 5 -23 -4 -53 -2 -67 3 -20 9 -18 10 14 5 24 -4 37 -2 37 5 0
17 -70 14 -77 -4z"/>
<path d="M7856 8918 c2 -3 -2 -9 -8 -12 -7 -3 -2 -3 12 1 14 4 33 7 43 7 9 0
17 4 17 7 0 4 -15 7 -34 6 -19 -1 -32 -5 -30 -9z"/>
<path d="M7100 8868 c0 -4 11 -10 25 -14 14 -3 23 -9 20 -14 -2 -4 9 -7 25 -8
25 -1 30 3 30 24 0 24 -3 25 -50 22 -27 -2 -50 -6 -50 -10z"/>
<path d="M7794 8868 c-5 -7 -2 -8 6 -3 10 6 12 4 6 -10 -5 -15 -4 -16 9 -5 19
15 19 16 0 23 -8 4 -17 1 -21 -5z"/>
<path d="M7780 8823 c0 -15 -2 -16 -10 -3 -5 8 -10 11 -10 5 0 -5 5 -17 10
-25 7 -12 10 -12 10 -1 0 8 6 11 15 7 13 -4 14 -2 5 14 -13 25 -20 25 -20 3z"/>
<path d="M8005 8790 c4 -6 11 -8 16 -5 14 9 11 15 -7 15 -8 0 -12 -5 -9 -10z"/>
<path d="M7100 8765 c0 -14 4 -25 9 -25 4 0 6 11 3 25 -2 14 -6 25 -8 25 -2 0
-4 -11 -4 -25z"/>
<path d="M6809 8757 c5 -5 28 -7 52 -5 l44 3 -52 5 c-29 3 -48 1 -44 -3z"/>
<path d="M6815 8730 c22 -6 25 -8 10 -10 -11 -1 -24 -2 -29 -1 -5 1 -6 -5 -2
-14 3 -9 1 -25 -4 -35 -8 -14 -6 -20 8 -23 16 -4 16 -5 0 -6 -10 0 -18 -5 -18
-10 0 -5 10 -7 23 -5 17 3 15 1 -8 -11 -27 -14 -27 -15 -5 -11 38 8 181 -6
150 -15 -25 -7 -25 -7 -2 -8 13 -1 30 6 38 14 14 13 10 15 -34 15 -42 0 -142
28 -104 30 6 0 12 7 12 15 0 8 -3 14 -7 13 -5 -2 -9 2 -10 7 -2 6 18 9 49 6
42 -2 50 0 45 12 -4 11 6 16 46 22 45 7 48 9 27 15 -14 5 -47 8 -75 7 l-50 0
50 -6 50 -6 -49 -9 c-40 -6 -51 -5 -58 8 -6 11 -22 16 -46 15 l-37 -1 30 -8z"/>
<path d="M7010 8700 c-8 -5 -28 -12 -45 -16 l-30 -7 33 -9 c17 -5 32 -13 32
-18 0 -6 5 -10 11 -10 7 0 9 9 6 21 -5 18 -2 20 19 15 27 -7 30 -1 10 20 -17
16 -16 16 -36 4z"/>
<path d="M6873 8633 c9 -2 23 -2 30 0 6 3 -1 5 -18 5 -16 0 -22 -2 -12 -5z"/>
<path d="M6968 8623 c6 -2 18 -2 25 0 6 3 1 5 -13 5 -14 0 -19 -2 -12 -5z"/>
<path d="M7001 8591 c-16 -10 23 -23 45 -14 16 6 19 23 4 23 -5 0 -10 -5 -10
-11 0 -8 -4 -8 -13 -1 -7 6 -19 7 -26 3z"/>
<path d="M7911 8584 c0 -11 3 -14 6 -6 3 7 2 16 -1 19 -3 4 -6 -2 -5 -13z"/>
<path d="M8412 8580 c0 -14 2 -19 5 -12 2 6 2 18 0 25 -3 6 -5 1 -5 -13z"/>
<path d="M7121 8580 c0 -8 4 -22 9 -30 12 -18 12 -2 0 25 -6 13 -9 15 -9 5z"/>
<path d="M7150 8579 c0 -6 8 -18 17 -27 16 -16 16 -16 10 1 -4 10 -7 23 -7 28
0 5 -4 9 -10 9 -5 0 -10 -5 -10 -11z"/>
<path d="M8136 8547 c3 -10 9 -15 12 -12 3 3 0 11 -7 18 -10 9 -11 8 -5 -6z"/>
<path d="M7130 8509 c0 -11 5 -17 10 -14 6 3 10 13 10 21 0 8 -4 14 -10 14 -5
0 -10 -9 -10 -21z"/>
<path d="M7626 8489 c-7 -36 7 -72 17 -45 4 11 3 15 -4 11 -7 -5 -8 5 -4 29 4
20 5 36 2 36 -2 0 -7 -14 -11 -31z"/>
<path d="M7661 8504 c0 -11 3 -14 6 -6 3 7 2 16 -1 19 -3 4 -6 -2 -5 -13z"/>
<path d="M8120 8510 c0 -5 5 -10 11 -10 5 0 7 5 4 10 -3 6 -8 10 -11 10 -2 0
-4 -4 -4 -10z"/>
<path d="M6698 8458 c24 -13 40 -27 36 -31 -4 -4 6 -7 22 -7 20 0 25 -3 16 -9
-8 -5 12 -8 51 -7 36 1 63 4 60 9 -2 4 5 7 16 7 10 0 21 -4 23 -9 2 -6 18 -7
37 -3 32 7 28 9 -41 20 -48 8 -83 9 -99 4 -15 -6 -34 -6 -49 0 -24 9 -25 10
-5 24 18 13 17 14 -15 12 -19 -1 -48 2 -65 6 -25 6 -23 3 13 -16z m162 -38
c-14 -4 -34 -8 -45 -8 l-20 -1 20 9 c11 5 31 8 45 8 l25 0 -25 -8z"/>
<path d="M7591 8464 c0 -11 3 -14 6 -6 3 7 2 16 -1 19 -3 4 -6 -2 -5 -13z"/>
<path d="M6783 8443 c9 -2 23 -2 30 0 6 3 -1 5 -18 5 -16 0 -22 -2 -12 -5z"/>
<path d="M6698 8403 c7 -3 16 -2 19 1 4 3 -2 6 -13 5 -11 0 -14 -3 -6 -6z"/>
<path d="M6648 8313 c6 -2 18 -2 25 0 6 3 1 5 -13 5 -14 0 -19 -2 -12 -5z"/>
<path d="M6698 8303 c7 -3 16 -2 19 1 4 3 -2 6 -13 5 -11 0 -14 -3 -6 -6z"/>
<path d="M7532 8280 c0 -14 2 -19 5 -12 2 6 2 18 0 25 -3 6 -5 1 -5 -13z"/>
<path d="M7561 8284 c0 -11 3 -14 6 -6 3 7 2 16 -1 19 -3 4 -6 -2 -5 -13z"/>
<path d="M7995 8280 c3 -5 8 -10 11 -10 2 0 4 5 4 10 0 6 -5 10 -11 10 -5 0
-7 -4 -4 -10z"/>
<path d="M6675 8270 c-17 -7 -15 -9 13 -9 17 -1 32 4 32 9 0 12 -17 12 -45 0z"/>
<path d="M6573 8256 c18 -18 100 -27 152 -16 34 7 28 8 -45 10 -59 1 -77 4
-60 10 21 7 18 8 -18 9 -37 1 -41 -1 -29 -13z"/>
<path d="M8201 8234 c0 -11 3 -14 6 -6 3 7 2 16 -1 19 -3 4 -6 -2 -5 -13z"/>
<path d="M6848 8223 c6 -2 18 -2 25 0 6 3 1 5 -13 5 -14 0 -19 -2 -12 -5z"/>
<path d="M6985 8223 c17 -3 36 -9 43 -15 8 -7 12 -7 12 0 0 13 -26 22 -58 21
-26 -2 -26 -2 3 -6z"/>
<path d="M6920 8210 c14 -4 34 -8 45 -8 16 0 15 2 -5 8 -14 4 -34 8 -45 8 -16
0 -15 -2 5 -8z"/>
<path d="M8210 8201 c0 -6 4 -13 10 -16 6 -3 7 1 4 9 -7 18 -14 21 -14 7z"/>
<path d="M7160 8160 c0 -5 5 -10 11 -10 5 0 7 5 4 10 -3 6 -8 10 -11 10 -2 0
-4 -4 -4 -10z"/>
<path d="M7900 8155 c-8 -9 -8 -15 -2 -15 12 0 26 19 19 26 -2 2 -10 -2 -17
-11z"/>
<path d="M6150 8141 c0 -4 -26 -7 -57 -6 -116 5 -465 -60 -423 -78 8 -4 5 -4
-7 -1 -24 6 -29 4 -192 -51 -57 -19 -105 -35 -108 -35 -2 0 -1 -4 2 -10 3 -5
0 -7 -9 -4 -25 10 -443 -209 -454 -237 -2 -5 -8 -9 -13 -9 -23 0 -345 -258
-334 -268 2 -3 30 0 62 6 32 6 85 14 118 18 53 6 67 12 115 54 61 52 218 161
295 205 95 53 268 136 297 142 19 4 25 9 17 13 -7 5 1 10 22 14 19 4 43 11 54
16 11 4 54 18 95 30 41 13 89 27 105 34 17 6 35 11 40 11 8 1 26 5 98 21 4 1
22 2 40 3 24 1 28 4 17 11 -13 8 -13 10 2 10 9 0 25 3 35 6 15 5 16 4 3 -6
-12 -9 -9 -10 15 -7 17 3 49 10 72 16 49 13 124 19 293 27 69 3 127 9 128 14
5 13 39 13 44 1 2 -5 50 -12 106 -16 97 -7 104 -6 100 10 -1 10 -10 20 -18 22
-12 4 -12 3 -2 -5 11 -7 7 -11 -13 -16 -15 -4 -30 -5 -33 -1 -3 3 3 5 14 6 32
0 -78 40 -121 43 -72 5 -81 9 -35 16 25 4 -46 7 -162 8 -115 0 -208 -3 -208
-7z m298 -8 c-10 -2 -26 -2 -35 0 -10 3 -2 5 17 5 19 0 27 -2 18 -5z m0 -30
c-10 -2 -26 -2 -35 0 -10 3 -2 5 17 5 19 0 27 -2 18 -5z m126 -4 c-2 -4 13
-10 33 -12 24 -3 22 -3 -7 -1 -25 1 -63 7 -85 12 l-40 10 52 -1 c29 0 50 -4
47 -8z m-321 -16 c-7 -2 -19 -2 -25 0 -7 3 -2 5 12 5 14 0 19 -2 13 -5z m-186
-19 c-3 -3 -12 -4 -19 -1 -8 3 -5 6 6 6 11 1 17 -2 13 -5z m-390 -40 c-3 -3
-12 -4 -19 -1 -8 3 -5 6 6 6 11 1 17 -2 13 -5z"/>
<path d="M7265 8131 l20 -8 -20 -6 -20 -6 20 2 c24 3 23 21 -2 24 -15 2 -14 1
2 -6z"/>
<path d="M6683 8123 c-13 -2 -23 -9 -23 -14 0 -12 10 -11 40 6 25 15 23 16
-17 8z"/>
<path d="M6799 8113 c-1 -5 -1 -11 0 -15 0 -5 -6 -8 -16 -8 -9 0 -14 -3 -11
-6 3 -3 21 -1 39 5 30 8 31 9 9 10 -20 1 -22 3 -10 11 10 6 11 10 3 10 -7 0
-14 -3 -14 -7z"/>
<path d="M7268 8093 c7 -3 16 -2 19 1 4 3 -2 6 -13 5 -11 0 -14 -3 -6 -6z"/>
<path d="M7317 8079 c7 -7 15 -10 18 -7 3 3 -2 9 -12 12 -14 6 -15 5 -6 -5z"/>
<path d="M6822 8065 c-31 -14 -36 -35 -9 -35 8 0 7 3 -2 9 -9 6 -1 13 30 24
24 8 37 16 29 16 -8 0 -30 -6 -48 -14z"/>
<path d="M6758 8063 c7 -3 16 -2 19 1 4 3 -2 6 -13 5 -11 0 -14 -3 -6 -6z"/>
<path d="M7468 8063 c7 -3 16 -2 19 1 4 3 -2 6 -13 5 -11 0 -14 -3 -6 -6z"/>
<path d="M6880 8029 c0 -5 5 -7 10 -4 6 3 10 8 10 11 0 2 -4 4 -10 4 -5 0 -10
-5 -10 -11z"/>
<path d="M7020 8016 c0 -2 7 -7 16 -10 8 -3 12 -2 9 4 -6 10 -25 14 -25 6z"/>
<path d="M6978 8003 c7 -3 16 -2 19 1 4 3 -2 6 -13 5 -11 0 -14 -3 -6 -6z"/>
<path d="M8576 7933 c-6 -14 -5 -15 5 -6 7 7 10 15 7 18 -3 3 -9 -2 -12 -12z"/>
<path d="M7730 7900 c0 -5 5 -10 11 -10 5 0 7 5 4 10 -3 6 -8 10 -11 10 -2 0
-4 -4 -4 -10z"/>
<path d="M10016 7791 c-7 -11 3 -41 13 -41 4 0 8 7 8 15 0 8 -5 11 -10 8 -6
-4 -8 0 -4 10 7 18 2 23 -7 8z"/>
<path d="M9854 7741 c0 -21 7 -36 16 -38 10 -3 11 -2 3 4 -6 4 -13 22 -16 38
-4 27 -5 27 -3 -4z"/>
<path d="M9990 7760 c0 -5 5 -10 11 -10 5 0 7 5 4 10 -3 6 -8 10 -11 10 -2 0
-4 -4 -4 -10z"/>
<path d="M10020 7730 c0 -5 5 -10 11 -10 5 0 7 5 4 10 -3 6 -8 10 -11 10 -2 0
-4 -4 -4 -10z"/>
<path d="M10044 7696 c5 -14 2 -17 -9 -12 -13 5 -13 2 1 -19 9 -14 18 -25 19
-25 7 0 -1 60 -9 67 -5 5 -6 0 -2 -11z"/>
<path d="M10070 7663 c0 -10 5 -25 11 -33 8 -11 9 -9 3 10 -6 22 -5 23 10 11
10 -8 16 -9 16 -3 0 6 -9 16 -20 22 -17 9 -20 8 -20 -7z"/>
<path d="M10062 7610 c0 -14 2 -19 5 -12 2 6 2 18 0 25 -3 6 -5 1 -5 -13z"/>
<path d="M9947 7599 c7 -7 15 -10 18 -7 3 3 -2 9 -12 12 -14 6 -15 5 -6 -5z"/>
<path d="M10090 7600 c0 -5 5 -10 10 -10 6 0 10 5 10 10 0 6 -4 10 -10 10 -5
0 -10 -4 -10 -10z"/>
<path d="M9940 7571 c0 -6 4 -13 10 -16 6 -3 7 1 4 9 -7 18 -14 21 -14 7z"/>
<path d="M9921 7554 c0 -11 3 -14 6 -6 3 7 2 16 -1 19 -3 4 -6 -2 -5 -13z"/>
<path d="M10096 7553 c-3 -8 -1 -11 4 -8 6 3 10 -3 10 -14 0 -15 6 -20 20 -18
22 4 40 17 22 17 -7 0 -12 6 -12 14 0 19 -37 27 -44 9z"/>
<path d="M9990 7511 c0 -5 5 -13 10 -16 6 -3 10 -2 10 4 0 5 -4 13 -10 16 -5
3 -10 2 -10 -4z"/>
<path d="M10134 7488 c0 -14 5 -24 9 -21 5 3 7 -3 5 -13 -2 -11 2 -18 9 -17
14 3 28 -40 18 -56 -3 -6 -2 -11 3 -11 8 0 42 -73 48 -102 1 -5 3 -10 4 -13 1
-3 3 -8 4 -12 1 -5 15 -35 31 -68 16 -33 27 -66 26 -74 -1 -7 2 -10 7 -7 6 4
8 -3 4 -16 -4 -15 -2 -19 7 -13 10 5 11 2 7 -13 -4 -11 -3 -23 2 -26 12 -7 93
-256 127 -391 30 -115 62 -263 75 -350 27 -173 33 -205 40 -205 4 0 22 5 39
11 32 11 32 12 26 63 -6 45 -27 164 -40 221 -40 187 -65 296 -73 311 -6 11
-20 57 -33 104 -12 47 -25 90 -29 95 -4 6 -15 36 -24 68 -10 31 -22 57 -27 57
-4 0 -6 6 -3 14 6 16 -22 75 -45 94 -9 8 -10 10 -2 6 7 -4 12 -3 10 2 -2 5
-15 37 -28 72 -16 42 -28 61 -37 58 -10 -4 -12 3 -7 26 4 22 3 29 -5 24 -8 -5
-12 1 -12 14 0 13 -4 18 -11 14 -6 -4 -10 1 -8 12 3 26 -11 55 -23 48 -6 -4
-7 2 -3 17 7 21 6 22 -9 10 -19 -16 -22 -1 -3 18 10 11 9 12 -2 6 -11 -6 -13
-4 -8 8 5 14 -17 32 -35 29 -4 -1 -4 6 -1 16 6 14 4 15 -9 4 -13 -10 -17 -10
-21 0 -2 7 -4 1 -3 -14z m139 -278 c3 -11 2 -18 -3 -15 -4 3 -10 14 -13 25 -3
11 -2 18 3 15 4 -3 10 -14 13 -25z"/>
<path d="M10015 7480 c-3 -11 -3 -25 2 -32 4 -7 6 -24 5 -38 l-2 -25 10 24 c7
16 7 28 -1 37 -6 7 -8 22 -4 34 3 11 4 20 1 20 -2 0 -7 -9 -11 -20z"/>
<path d="M10090 7346 c0 -8 4 -17 9 -20 5 -4 7 3 4 14 -6 23 -13 26 -13 6z"/>
<path d="M10102 7277 c0 -12 -2 -31 -4 -42 -3 -11 -3 -14 -1 -7 3 6 8 12 13
12 14 0 17 35 5 47 -10 9 -13 7 -13 -10z"/>
<path d="M10081 7264 c0 -11 3 -14 6 -6 3 7 2 16 -1 19 -3 4 -6 -2 -5 -13z"/>
<path d="M10122 7231 c-9 -25 -8 -28 11 -27 11 1 22 8 24 16 4 13 3 13 -6 0
-5 -8 -13 -11 -17 -7 -4 3 -1 13 5 21 7 9 8 17 2 20 -5 3 -14 -7 -19 -23z"/>
<path d="M10114 7156 c-9 -20 -9 -26 2 -30 8 -3 14 -2 15 2 0 4 2 17 5 30 5
29 -8 28 -22 -2z"/>
<path d="M10169 7124 c-5 -15 -7 -29 -4 -32 3 -3 5 0 5 6 0 7 8 12 18 12 13 0
14 2 3 9 -7 5 -10 14 -7 20 4 6 5 11 1 11 -3 0 -10 -12 -16 -26z"/>
<path d="M10180 7080 c0 -5 5 -10 10 -10 6 0 10 -5 10 -11 0 -7 -9 -9 -22 -6
-22 6 -22 6 -3 -9 13 -10 19 -26 18 -52 -1 -52 -14 -186 -18 -191 -11 -11 -35
12 -35 34 0 26 -15 35 -22 13 -3 -9 -6 -9 -12 0 -4 7 -3 12 3 12 7 0 7 9 -1
26 -10 21 -9 27 3 36 10 7 9 8 -6 2 -11 -4 -39 -9 -62 -12 -55 -5 -60 -32 -7
-32 35 0 35 -1 32 -37 -3 -35 -6 -38 -35 -41 -25 -2 -33 1 -33 12 0 12 -10 16
-40 16 -29 0 -40 -4 -40 -15 0 -8 9 -15 20 -15 18 0 20 -7 20 -81 l0 -81 -27
2 c-16 1 -52 2 -80 1 l-53 -1 0 -80 0 -80 -50 0 c-43 0 -50 -3 -50 -20 0 -24
-36 -35 -86 -27 -25 4 -44 0 -67 -13 l-32 -20 63 0 c34 0 62 -4 62 -10 0 -5
-9 -10 -20 -10 -17 0 -20 -7 -20 -50 l0 -50 -60 0 c-53 0 -60 -2 -60 -20 0
-13 -7 -20 -20 -20 -11 0 -20 7 -20 15 0 11 -11 15 -40 15 -29 0 -40 -4 -40
-15 0 -11 11 -15 40 -15 25 0 40 -5 40 -12 0 -10 21 -12 80 -10 l80 4 0 29 c0
27 2 29 40 29 33 0 40 -3 40 -20 0 -12 7 -20 18 -20 37 -1 -21 -30 -60 -30
-35 0 -38 -2 -38 -27 l0 -28 -80 5 c-78 5 -80 4 -80 -17 0 -22 -4 -23 -80 -23
-73 0 -80 2 -80 20 0 17 7 20 40 20 29 0 40 4 40 15 0 11 -11 15 -40 15 -37 0
-39 -2 -46 -35 -3 -19 -3 -50 0 -67 l6 -33 80 3 80 4 0 -34 0 -33 -82 5 c-108
7 -138 3 -138 -20 0 -10 -7 -21 -16 -24 -23 -9 -72 -7 -76 3 -5 15 -48 -7 -48
-25 0 -13 -3 -14 -14 -5 -11 9 -16 9 -22 0 -10 -16 -5 -112 6 -119 7 -5 30
-107 30 -137 0 -25 -19 -13 -22 15 -2 15 -3 -30 -3 -100 0 -79 4 -128 10 -128
37 1 371 92 420 115 17 8 56 22 88 31 39 12 53 21 45 27 -8 5 -4 6 11 2 13 -4
26 -3 30 1 3 5 31 17 61 28 30 10 87 33 125 50 39 18 90 41 115 52 25 10 47
21 50 24 3 3 28 16 55 30 28 13 83 44 123 67 40 24 119 66 175 94 56 28 106
54 110 58 10 10 -2 123 -12 116 -4 -2 -6 9 -3 24 2 15 -10 90 -27 167 -16 76
-34 159 -40 184 l-9 45 -2 -50 -3 -50 -6 40 c-4 22 -2 50 3 63 6 15 6 26 -2
34 -7 7 -12 20 -12 30 0 10 -5 18 -11 18 -5 0 -8 4 -5 9 9 13 -5 72 -15 65 -9
-5 -22 34 -19 57 2 8 2 22 1 32 -1 15 -3 15 -22 -4 -11 -11 -24 -18 -27 -14
-4 4 1 11 11 16 18 11 23 44 8 54 -5 3 -12 -7 -14 -22 -4 -26 -4 -26 -6 5 0
17 3 32 8 32 17 0 -2 45 -28 67 -21 17 -24 24 -13 34 17 18 15 49 -4 49 -8 0
-12 5 -9 10 3 6 0 17 -9 25 -17 17 -26 19 -26 5z m50 -157 c0 -7 -4 -13 -10
-13 -5 0 -10 12 -10 28 0 21 2 24 10 12 5 -8 10 -21 10 -27z m30 -9 c0 -8 -4
-12 -10 -9 -5 3 -10 10 -10 16 0 5 5 9 10 9 6 0 10 -7 10 -16z m-10 -35 c0 -6
-4 -7 -10 -4 -5 3 -10 11 -10 16 0 6 5 7 10 4 6 -3 10 -11 10 -16z m-2 -54
c-3 -14 -1 -25 3 -25 5 0 9 -16 9 -36 0 -21 -4 -33 -10 -29 -6 3 -8 16 -6 28
1 12 1 17 -1 11 -7 -21 -83 -33 -83 -14 0 6 8 10 18 10 26 1 50 23 57 53 9 34
19 36 13 2z m-168 -101 c0 -67 -2 -76 -20 -81 -16 -4 -20 -14 -20 -47 0 -39
-13 -66 -32 -66 -4 0 -8 7 -8 15 0 8 -9 15 -20 15 -17 0 -20 7 -20 40 l0 40
40 0 40 0 0 74 c0 70 5 82 33 85 4 1 7 -33 7 -75z m210 61 c0 -8 -2 -15 -4
-15 -2 0 -6 7 -10 15 -3 8 -1 15 4 15 6 0 10 -7 10 -15z m-2 -72 c-14 -18 -19
-12 -11 16 4 16 8 19 14 10 4 -7 3 -19 -3 -26z m-148 7 c0 -11 5 -20 10 -20 6
0 10 -11 10 -25 0 -14 5 -25 12 -25 6 0 9 -2 6 -5 -12 -12 -38 9 -38 31 0 13
-4 24 -10 24 -5 0 -10 9 -10 20 0 11 5 20 10 20 6 0 10 -9 10 -20z m157 -52
c-3 -8 -6 -5 -6 6 -1 11 2 17 5 13 3 -3 4 -12 1 -19z m-377 -114 c0 -67 -2
-74 -20 -74 -17 0 -20 -7 -20 -44 0 -47 -24 -76 -62 -76 -15 0 -18 9 -18 60
l0 60 40 0 40 0 0 74 c0 50 4 76 13 79 23 8 27 -4 27 -79z m420 19 c0 -43 -5
-41 -13 5 -4 18 -2 32 3 32 6 0 10 -16 10 -37z m24 22 c3 -8 1 -15 -4 -15 -6
0 -10 7 -10 15 0 8 2 15 4 15 2 0 6 -7 10 -15z m-601 -222 c3 -27 2 -51 -1
-54 -4 -3 -28 -4 -54 -1 -58 5 -61 19 -15 67 46 48 63 46 70 -12z m594 -35
c-2 -13 -4 -3 -4 22 0 25 2 35 4 23 2 -13 2 -33 0 -45z m26 -19 c-4 -4 -6 13
-3 39 l5 47 3 -39 c2 -21 0 -42 -5 -47z m-603 -29 c0 -5 -4 -10 -10 -10 -5 0
-10 5 -10 10 0 6 5 10 10 10 6 0 10 -4 10 -10z m-180 -185 c0 -22 -4 -25 -40
-25 -22 0 -40 -4 -40 -10 0 -5 -18 -10 -40 -10 -38 0 -40 2 -40 30 l0 29 78 4
c42 1 78 4 80 5 1 1 2 -9 2 -23z m-160 -165 c0 -26 -4 -30 -37 -36 -25 -5 -38
-3 -41 5 -5 14 -42 15 -42 1 0 -5 -7 -10 -15 -10 -15 0 -65 -42 -65 -55 0 -3
17 -6 38 -6 20 -1 29 -3 20 -6 -10 -2 -18 -11 -18 -19 0 -8 -8 -17 -17 -21
-10 -3 -26 -14 -35 -24 -10 -10 -25 -15 -38 -12 -12 3 -29 -2 -40 -12 -20 -18
-20 -17 -20 38 0 54 1 57 25 57 16 0 25 6 25 15 0 20 65 85 85 85 8 0 15 4 15
10 0 5 35 11 78 13 42 1 78 4 80 5 1 1 2 -11 2 -28z m-280 -31 c0 -14 -37 -10
-43 4 -4 10 2 13 19 9 13 -2 24 -8 24 -13z m-40 -48 c0 -11 -5 -23 -12 -27 -7
-4 -8 -3 -4 4 4 7 1 12 -7 12 -8 0 -17 7 -21 15 -4 11 1 15 19 15 18 0 25 -5
25 -19z m-5 -139 l-8 -57 -13 30 c-16 36 -18 65 -5 65 5 0 12 -10 14 -22 2
-13 5 -3 6 22 2 25 5 39 8 32 3 -7 2 -39 -2 -70z"/>
<path d="M9733 6346 c-10 -11 -9 -15 2 -20 10 -4 15 1 15 14 0 23 -1 24 -17 6z"/>
<path d="M10109 6993 c-8 -23 -6 -30 19 -53 16 -14 32 -33 35 -41 3 -8 5 8 4
36 -1 32 -8 56 -19 67 -24 24 -27 23 -39 -9z"/>
<path d="M4518 6943 c7 -3 16 -2 19 1 4 3 -2 6 -13 5 -11 0 -14 -3 -6 -6z"/>
<path d="M4483 6924 c16 -8 36 -13 45 -11 12 3 11 5 -5 6 -13 0 -23 6 -23 11
0 6 -10 10 -22 10 -22 -1 -21 -2 5 -16z"/>
<path d="M9840 6735 c0 -11 11 -15 40 -15 29 0 40 4 40 15 0 11 -11 15 -40 15
-29 0 -40 -4 -40 -15z"/>
<path d="M8651 6674 c0 -11 3 -14 6 -6 3 7 2 16 -1 19 -3 4 -6 -2 -5 -13z"/>
<path d="M8841 6644 c0 -11 3 -14 6 -6 3 7 2 16 -1 19 -3 4 -6 -2 -5 -13z"/>
<path d="M8680 6640 c0 -5 5 -10 10 -10 6 0 10 5 10 10 0 6 -4 10 -10 10 -5 0
-10 -4 -10 -10z"/>
<path d="M9740 6600 c0 -22 5 -40 10 -40 6 0 10 18 10 40 0 22 -4 40 -10 40
-5 0 -10 -18 -10 -40z"/>
<path d="M4560 6550 c0 -5 4 -10 9 -10 6 0 13 5 16 10 3 6 -1 10 -9 10 -9 0
-16 -4 -16 -10z"/>
<path d="M8707 6539 c4 -13 8 -18 11 -10 2 7 -1 18 -6 23 -8 8 -9 4 -5 -13z"/>
<path d="M8730 6545 c0 -8 4 -15 10 -15 5 0 7 7 4 15 -4 8 -8 15 -10 15 -2 0
-4 -7 -4 -15z"/>
<path d="M8740 6510 c0 -6 -3 -9 -7 -7 -5 3 -13 -1 -19 -7 -9 -10 -5 -13 17
-13 28 0 40 19 19 32 -5 3 -10 1 -10 -5z"/>
<path d="M5851 6474 c0 -11 3 -14 6 -6 3 7 2 16 -1 19 -3 4 -6 -2 -5 -13z"/>
<path d="M8773 6469 c-3 -11 -11 -18 -18 -15 -7 2 -16 -5 -19 -17 -9 -35 -7
-47 8 -47 8 0 18 -10 22 -22 4 -13 13 -32 21 -43 14 -18 14 -17 8 20 -4 25 -3
36 3 30 14 -15 23 -103 11 -111 -6 -3 -13 3 -16 15 -3 12 -9 21 -14 21 -5 0
-9 7 -9 16 0 8 -4 13 -10 9 -5 -3 -6 -14 0 -28 20 -51 23 -63 21 -86 -2 -16 1
-21 10 -16 9 6 11 1 7 -18 -3 -15 -1 -24 3 -21 5 3 9 -13 9 -35 0 -23 5 -41
10 -41 6 0 8 -10 4 -24 -3 -14 -3 -30 1 -35 3 -6 8 -43 10 -82 3 -39 7 -75 11
-81 3 -5 7 -107 7 -225 l1 -215 36 6 c19 3 43 6 53 6 15 0 17 12 17 113 0 157
-18 373 -35 426 -8 25 -15 60 -15 78 0 19 -3 32 -7 30 -5 -3 -9 12 -11 34 -1
21 -14 71 -27 111 -14 40 -25 81 -25 91 0 10 -5 15 -10 12 -7 -4 -9 6 -8 26 1
19 -3 34 -10 37 -6 2 -12 16 -13 30 -1 25 -2 24 -12 -8 l-11 -35 -4 28 c-2 16
1 42 7 58 5 16 8 29 5 29 -3 0 -8 -9 -11 -21z m77 -229 c0 -5 -5 -10 -11 -10
-5 0 -7 5 -4 10 3 6 8 10 11 10 2 0 4 -4 4 -10z m-33 -42 c-3 -8 -6 -5 -6 6
-1 11 2 17 5 13 3 -3 4 -12 1 -19z m34 -11 c-10 -9 -11 -8 -5 6 3 10 9 15 12
12 3 -3 0 -11 -7 -18z m9 -237 c0 -5 -2 -10 -4 -10 -3 0 -8 5 -11 10 -3 6 -1
10 4 10 6 0 11 -4 11 -10z"/>
<path d="M8945 6479 c-4 -6 -5 -12 -2 -15 2 -3 7 2 10 11 7 17 1 20 -8 4z"/>
<path d="M5881 6464 c0 -11 3 -14 6 -6 3 7 2 16 -1 19 -3 4 -6 -2 -5 -13z"/>
<path d="M8717 6453 c-4 -3 -7 -11 -7 -17 0 -6 5 -5 12 2 6 6 9 14 7 17 -3 3
-9 2 -12 -2z"/>
<path d="M5872 6390 c0 -14 2 -19 5 -12 2 6 2 18 0 25 -3 6 -5 1 -5 -13z"/>
<path d="M5903 6365 c0 -22 2 -30 4 -17 2 12 2 30 0 40 -3 9 -5 -1 -4 -23z"/>
<path d="M8950 6355 c0 -5 5 -17 10 -25 5 -8 10 -10 10 -5 0 6 -5 17 -10 25
-5 8 -10 11 -10 5z"/>
<path d="M9465 6339 l-30 -19 43 0 c35 0 42 3 42 20 0 25 -16 24 -55 -1z"/>
<path d="M8930 6336 c0 -8 4 -17 9 -20 5 -4 7 3 4 14 -6 23 -13 26 -13 6z"/>
<path d="M5910 6230 c0 -5 5 -10 10 -10 6 0 10 5 10 10 0 6 -4 10 -10 10 -5 0
-10 -4 -10 -10z"/>
<path d="M9011 6235 c1 -19 18 -51 18 -35 0 8 -4 22 -9 30 -5 8 -9 11 -9 5z"/>
<path d="M8975 6220 c-3 -5 -1 -10 4 -10 6 0 11 5 11 10 0 6 -2 10 -4 10 -3 0
-8 -4 -11 -10z"/>
<path d="M8990 6190 c0 -5 5 -10 10 -10 6 0 10 5 10 10 0 6 -4 10 -10 10 -5 0
-10 -4 -10 -10z"/>
<path d="M5854 6165 c-4 -8 -3 -27 1 -43 4 -15 9 -53 10 -85 2 -42 7 -61 20
-71 16 -11 16 -17 6 -47 -11 -32 -10 -36 16 -58 15 -13 21 -21 12 -18 -12 4
-16 -1 -16 -19 0 -13 3 -22 7 -19 3 2 7 -2 7 -10 0 -13 -3 -12 -18 1 -10 9
-16 21 -13 25 3 5 -1 9 -8 9 -7 0 -36 16 -63 36 -107 76 -355 178 -378 155 -5
-5 -4 -9 4 -8 8 1 31 -3 52 -7 29 -6 36 -12 32 -25 -4 -12 4 -22 27 -34 26
-12 28 -16 13 -17 -11 0 -27 -5 -35 -11 -11 -8 -5 -9 25 -6 22 2 32 2 23 0
-22 -5 -23 -22 -4 -29 8 -3 12 -12 9 -20 -3 -8 1 -14 10 -14 10 0 14 -7 10
-22 -4 -18 -2 -20 5 -9 8 11 13 -1 22 -47 l12 -61 20 22 c17 19 18 20 10 2 -5
-11 -21 -45 -35 -75 -13 -30 -39 -85 -56 -122 -17 -37 -47 -109 -67 -160 -19
-51 -39 -102 -44 -113 -13 -28 -49 -165 -71 -264 -27 -119 -24 -261 6 -456 28
-175 79 -513 101 -670 18 -130 46 -203 97 -257 48 -51 81 -73 140 -95 98 -35
286 -34 401 2 28 9 67 21 86 27 34 10 165 67 204 89 10 6 35 20 55 31 217 121
432 321 567 528 68 105 126 224 175 365 81 229 151 342 310 504 73 74 83 89
80 115 -2 17 -7 34 -13 37 -5 4 -8 19 -7 35 2 16 0 35 -5 42 -4 7 -10 32 -12
55 -2 23 -9 58 -16 77 -16 45 -15 43 -17 89 -1 34 -4 39 -33 47 -18 6 -33 16
-34 24 0 8 -7 29 -13 45 -7 17 -14 44 -16 60 -7 62 -34 158 -47 167 -11 6 -10
10 1 17 12 8 12 12 2 24 -9 12 -9 16 1 20 7 3 2 6 -11 6 -20 1 -21 3 -11 16 7
9 8 15 2 15 -5 0 -35 -27 -66 -60 -84 -92 -175 -256 -225 -408 -70 -214 -125
-315 -276 -511 -33 -43 -165 -168 -245 -233 -107 -87 -194 -142 -333 -208
-185 -88 -361 -128 -503 -115 -69 6 -72 7 -72 33 0 15 11 56 25 92 35 90 163
340 174 340 5 0 9 4 9 9 0 4 23 48 51 97 65 113 84 157 109 254 25 98 25 180
0 294 -11 49 -17 93 -14 98 3 5 1 14 -4 21 -5 7 -15 57 -21 112 -19 160 -32
238 -43 262 -6 12 -8 29 -5 37 4 9 2 16 -3 16 -6 0 -10 15 -11 33 -1 30 -1 31
-9 7 -6 -18 -8 -20 -9 -7 -1 10 -5 16 -10 12 -5 -3 -12 3 -16 14 -8 25 -34 35
-41 16z m1526 -249 c0 -3 -4 -8 -10 -11 -5 -3 -10 -1 -10 4 0 6 5 11 10 11 6
0 10 -2 10 -4z m-1443 -133 c-3 -10 -5 -2 -5 17 0 19 2 27 5 18 2 -10 2 -26 0
-35z m-277 -13 c0 -11 -4 -20 -9 -20 -5 0 -7 9 -4 20 3 11 7 20 9 20 2 0 4 -9
4 -20z"/>
<path d="M9018 6150 c5 -14 7 -41 5 -61 -3 -20 -1 -39 4 -42 14 -9 8 102 -6
116 -10 10 -10 7 -3 -13z"/>
<path d="M9220 6120 c0 -22 5 -40 10 -40 6 0 10 18 10 40 0 22 -4 40 -10 40
-5 0 -10 -18 -10 -40z"/>
<path d="M8997 6138 c-2 -7 -1 -22 4 -33 6 -16 8 -14 8 13 1 33 -4 41 -12 20z"/>
<path d="M8190 6090 c0 -5 7 -7 15 -4 8 4 15 8 15 10 0 2 -7 4 -15 4 -8 0 -15
-4 -15 -10z"/>
<path d="M8235 6073 c4 -10 7 -25 7 -35 0 -9 10 -19 26 -24 20 -5 23 -8 10
-11 -23 -6 -24 -55 -2 -88 16 -25 21 -51 23 -131 1 -25 9 -50 21 -64 11 -12
17 -26 15 -30 -5 -8 -74 -25 -87 -22 -11 3 -10 -56 1 -60 5 -1 12 -23 16 -48
4 -25 12 -51 18 -59 7 -8 11 -16 9 -18 -5 -6 9 -77 18 -95 6 -10 6 -19 0 -23
-5 -3 -3 -20 5 -39 8 -18 11 -36 8 -40 -4 -3 1 -6 11 -6 9 0 14 -5 11 -10 -4
-6 -11 -8 -16 -5 -5 4 -9 2 -9 -3 0 -6 11 -13 25 -16 18 -5 25 -14 29 -39 2
-17 9 -66 15 -107 5 -41 19 -135 31 -209 11 -73 23 -156 26 -185 3 -28 7 -57
10 -65 7 -23 44 -273 44 -301 0 -26 -65 -135 -162 -269 -49 -69 -265 -296
-348 -367 -174 -148 -403 -293 -585 -369 -38 -16 -72 -32 -75 -36 -3 -3 -36
-16 -75 -29 -38 -12 -75 -27 -81 -31 -6 -5 -14 -6 -17 -2 -4 3 -12 1 -19 -4
-7 -6 -51 -20 -98 -31 -47 -12 -105 -26 -130 -32 -102 -26 -194 -39 -358 -51
-152 -11 -196 -11 -365 4 -201 18 -256 26 -347 50 -30 8 -82 20 -115 27 -33 7
-75 19 -93 27 -58 25 -145 53 -150 48 -3 -3 1 -5 8 -5 10 0 11 -3 3 -11 -8 -8
-17 -7 -34 5 -14 9 -18 16 -10 16 8 0 11 3 8 7 -8 7 -41 -26 -45 -45 -4 -19
26 -26 56 -13 l27 11 -24 -20 c-27 -24 -9 -27 32 -5 15 8 25 9 21 4 -4 -7 1
-9 15 -5 36 10 67 16 53 10 -6 -3 -10 -9 -8 -12 2 -4 -12 -7 -32 -6 -21 0 -53
-7 -73 -17 -33 -16 -36 -16 -47 -1 -10 13 -12 14 -9 2 2 -8 17 -24 34 -35 31
-20 58 -53 50 -61 -3 -3 -12 2 -20 11 -20 19 -33 19 -41 -1 -3 -9 -2 -12 5 -9
5 4 16 2 23 -4 17 -14 61 -18 101 -9 l30 7 -30 -14 c-30 -14 -27 -19 9 -15 11
1 15 -3 12 -9 -5 -7 6 -11 31 -11 30 0 35 -3 23 -11 -12 -8 -9 -9 13 -5 17 4
27 2 27 -5 0 -6 7 -8 16 -5 9 3 30 0 47 -8 36 -15 140 -36 180 -36 14 0 29 -4
32 -10 3 -5 16 -9 28 -9 12 1 74 -5 137 -11 121 -13 475 -7 560 9 25 5 86 16
135 25 118 21 197 41 324 82 153 50 291 106 284 117 -3 6 -1 7 5 3 12 -7 82
26 212 102 105 61 114 66 120 72 3 3 32 23 65 44 196 128 473 397 631 611 16
22 34 46 41 52 6 7 21 28 33 48 21 34 22 35 45 17 14 -9 25 -21 25 -25 1 -21
-118 -208 -169 -267 -53 -60 -61 -70 -56 -70 7 0 -200 -203 -262 -257 -29 -25
-50 -50 -46 -56 3 -6 1 -7 -6 -3 -7 5 -33 -10 -64 -36 -46 -39 -74 -59 -128
-93 -9 -5 -47 -31 -85 -57 -38 -25 -90 -56 -116 -69 -26 -12 -45 -26 -42 -31
3 -4 -1 -8 -9 -8 -8 0 -18 -7 -21 -16 -3 -8 -10 -12 -16 -9 -14 9 -101 -25
-94 -36 3 -5 -3 -9 -13 -9 -11 0 -23 -4 -28 -8 -6 -5 -29 -14 -52 -21 -24 -6
-43 -16 -43 -20 0 -5 -8 -7 -19 -4 -10 2 -25 -3 -34 -11 -8 -9 -23 -16 -32
-16 -9 0 -14 -4 -11 -9 3 -5 -16 -11 -42 -15 -45 -6 -106 -24 -127 -38 -6 -3
-28 -9 -50 -13 -22 -4 -65 -13 -95 -21 -30 -7 -80 -16 -110 -19 -30 -4 -57
-10 -60 -14 -3 -5 -34 -11 -70 -14 -36 -4 -83 -9 -105 -11 -22 -3 -95 -5 -162
-5 -82 0 -123 -3 -123 -10 0 -6 -16 -11 -36 -11 -21 0 -33 4 -29 10 9 15 -28
12 -70 -6 -20 -8 -42 -13 -48 -10 -7 2 -4 5 6 5 9 1 17 6 17 11 0 14 -38 12
-42 -2 -3 -7 -26 -11 -64 -11 -42 1 -52 -1 -34 -7 21 -7 18 -8 -17 -9 -41 -1
-43 -2 -43 -32 0 -31 1 -31 38 -26 l37 6 -27 -17 c-34 -20 -35 -28 -5 -36 41
-11 77 -7 77 9 0 11 11 15 40 15 27 0 40 -4 40 -14 0 -14 -78 -26 -171 -26
-37 0 -49 -4 -49 -15 0 -8 9 -15 19 -15 15 0 20 -10 26 -52 8 -60 22 -91 36
-83 5 4 9 -5 9 -18 0 -14 -7 -28 -16 -31 -14 -5 -15 -4 -4 9 12 14 8 15 -30 9
l-43 -7 6 48 c4 26 8 62 8 79 l1 31 8 -30 8 -30 1 28 c1 21 -5 30 -24 37 -23
9 -25 14 -21 47 5 36 5 37 -6 11 -10 -23 -18 -28 -45 -28 -21 0 -33 -5 -33
-14 0 -10 11 -12 40 -9 35 4 40 2 40 -16 0 -17 -6 -21 -29 -21 -40 0 -48 -17
-20 -41 12 -10 19 -19 14 -19 -4 0 -3 -6 4 -13 8 -10 7 -17 -1 -25 -15 -15
-38 -16 -38 -2 0 6 -12 10 -28 10 -26 0 -27 -2 -25 -42 2 -24 0 -37 -3 -29 -9
19 -34 -42 -34 -83 0 -21 -3 -27 -9 -18 -16 26 -20 -41 -4 -86 8 -24 12 -49 9
-55 -2 -7 -5 -1 -6 13 -1 14 -4 19 -7 12 -4 -10 -8 -9 -19 5 -12 16 -13 16
-14 1 0 -9 -3 -25 -6 -35 -5 -15 -4 -15 5 -3 9 13 11 13 11 -1 0 -9 -7 -20
-16 -23 -8 -3 -13 -10 -9 -15 3 -5 1 -12 -4 -15 -5 -3 -14 -20 -20 -36 -5 -17
-7 -29 -3 -26 4 3 6 -11 4 -30 -3 -25 -8 -34 -18 -30 -14 5 -18 -4 -14 -37 1
-9 -3 -16 -8 -15 -13 4 -53 -42 -46 -54 3 -4 2 -7 -3 -6 -5 2 -19 -7 -33 -19
-13 -13 -28 -23 -32 -23 -5 0 -6 -5 -3 -10 3 -5 -1 -10 -10 -10 -10 0 -13 -5
-9 -12 5 -8 2 -9 -11 -5 -9 4 -24 2 -33 -5 -8 -7 -18 -12 -21 -12 -3 1 -12 -1
-19 -4 -15 -5 -154 4 -192 13 -22 6 -23 5 -7 -5 10 -7 40 -15 65 -20 39 -6 41
-8 15 -9 -36 -1 -113 26 -113 40 0 5 -9 9 -20 9 -11 0 -20 4 -20 9 0 16 -41
24 -54 11 -8 -9 -6 -11 9 -8 27 5 95 -51 95 -79 0 -7 6 -10 16 -6 13 5 13 7 2
14 -9 6 -8 9 7 9 11 0 26 -4 33 -9 10 -6 5 -10 -16 -14 -18 -4 -33 -14 -37
-27 -3 -11 -11 -20 -16 -20 -6 0 -7 5 -4 10 3 5 -1 10 -9 10 -9 0 -16 -4 -16
-10 0 -5 -7 -10 -15 -10 -28 0 -16 35 18 50 25 11 28 15 14 18 -10 2 -26 -3
-36 -12 -10 -9 -26 -16 -36 -16 -14 0 -17 6 -12 33 9 56 -5 66 -55 40 -24 -12
-56 -27 -71 -33 -16 -5 -25 -14 -22 -20 3 -5 0 -7 -9 -4 -8 3 -27 -1 -43 -10
-27 -15 -27 -15 25 -9 47 5 52 4 51 -13 0 -11 -3 -13 -6 -6 -6 14 -43 16 -43
2 0 -5 5 -10 11 -10 16 0 43 -30 34 -38 -4 -4 -10 -1 -12 5 -3 7 -11 13 -19
13 -8 0 -24 6 -35 13 -17 10 -23 9 -26 0 -3 -7 -14 -13 -26 -13 -20 0 -21 0
-1 -18 20 -18 69 -28 59 -11 -4 5 -13 9 -21 9 -8 0 -14 5 -14 10 0 13 10 12
37 -3 12 -7 21 -16 20 -22 -1 -5 6 -11 17 -13 10 -2 16 0 13 5 -4 5 0 10 8 10
19 0 19 -3 -5 -25 -19 -18 -19 -18 10 -29 17 -6 30 -7 30 -3 0 5 -8 11 -17 13
-17 4 -17 5 -1 6 11 1 15 6 12 16 -4 10 0 15 15 15 12 0 21 -4 21 -10 0 -5 7
-7 15 -4 11 5 13 2 9 -9 -3 -9 -12 -13 -21 -10 -11 4 -14 2 -11 -8 3 -8 11
-13 18 -11 8 2 10 -3 7 -13 -5 -11 1 -15 23 -15 17 0 30 -4 30 -10 0 -5 7 -7
16 -3 13 5 13 7 2 14 -7 5 -8 9 -2 9 18 0 24 -12 13 -26 -8 -10 2 -14 46 -19
30 -4 58 -11 60 -16 3 -4 26 -11 50 -15 25 -3 45 -11 45 -16 0 -6 12 -8 30 -4
18 3 30 1 30 -5 0 -6 9 -8 20 -4 12 4 20 2 20 -5 0 -8 11 -11 30 -8 17 3 30 1
30 -2 0 -4 19 -10 43 -13 23 -3 74 -13 112 -22 93 -22 167 -31 440 -50 197
-15 263 -15 465 -5 129 6 285 18 345 26 150 19 452 79 555 109 168 50 420 135
471 160 29 14 56 25 60 25 19 0 332 152 398 195 23 14 43 25 46 25 7 0 268
161 275 169 3 3 25 20 50 36 25 17 50 35 57 40 6 6 44 35 84 65 268 203 550
485 768 765 57 73 229 327 276 407 128 218 256 485 336 703 52 139 100 279
111 320 14 49 36 85 53 85 7 0 16 6 18 13 11 27 6 -25 -7 -75 -38 -145 -88
-311 -114 -383 -212 -573 -538 -1080 -984 -1530 -71 -72 -156 -153 -190 -180
-33 -28 -66 -55 -72 -60 -9 -9 -123 -101 -196 -159 -57 -45 -268 -186 -362
-242 -100 -59 -457 -244 -472 -244 -4 0 -48 -17 -99 -38 -268 -112 -568 -200
-817 -242 -263 -44 -307 -50 -457 -61 -171 -13 -706 -6 -803 10 -30 5 -131 21
-225 36 -179 27 -184 28 -340 69 -55 14 -110 27 -122 29 -12 2 -26 6 -29 10
-4 4 -16 7 -26 7 -10 0 -26 4 -36 10 -9 5 -64 24 -122 41 -58 17 -110 35 -116
40 -6 5 -39 18 -74 30 -34 11 -79 29 -98 39 -28 15 -38 17 -44 7 -5 -8 -8 -7
-8 6 0 10 -8 17 -19 17 -11 0 -23 5 -27 11 -3 6 -15 9 -25 6 -11 -3 -17 -2
-14 2 5 9 -75 51 -96 51 -12 0 -12 -2 0 -9 9 -6 10 -11 2 -15 -6 -4 -16 4 -22
18 -9 19 -18 24 -38 21 -14 -2 -43 -7 -64 -10 -28 -5 -37 -10 -33 -21 3 -8 0
-14 -7 -14 -8 0 -7 -4 3 -10 8 -5 17 -6 20 -2 3 4 26 7 53 7 40 0 45 -2 30
-12 -9 -7 -22 -13 -27 -14 -6 0 -2 -4 9 -8 11 -5 20 -14 20 -22 0 -9 16 -16
45 -20 25 -3 36 -7 25 -8 -14 -1 -7 -8 23 -20 23 -9 39 -21 35 -25 -4 -5 3 -5
16 -1 14 4 21 3 18 -2 -3 -5 19 -18 49 -28 30 -10 54 -22 54 -26 0 -5 15 -12
33 -18 42 -12 176 -60 202 -72 30 -13 225 -78 225 -74 0 2 28 -5 63 -16 34
-10 70 -19 80 -19 11 0 33 -7 50 -15 50 -22 424 -87 613 -105 156 -15 650 -15
813 0 107 10 423 61 556 89 373 80 886 283 1212 479 34 20 83 50 110 66 109
66 307 208 447 321 135 108 399 359 502 475 195 222 346 427 487 660 55 91
188 342 207 390 7 19 17 40 20 45 24 33 143 341 186 480 14 44 29 89 34 100 5
11 14 40 20 65 6 25 19 72 29 105 10 33 24 78 31 100 11 36 18 43 78 69 37 17
104 47 150 68 45 21 95 41 110 44 15 4 32 10 37 14 6 3 30 13 55 20 25 7 59
20 75 29 17 8 35 15 40 16 6 0 20 6 33 13 17 10 22 22 22 57 0 24 -5 56 -11
72 -10 26 -26 134 -33 224 -4 41 -32 89 -52 89 -20 0 -69 59 -66 80 2 10 -7
46 -19 81 -15 43 -18 64 -11 67 8 2 9 10 3 20 -5 9 -12 37 -15 62 -3 25 -11
47 -16 48 -16 6 -12 30 6 40 15 8 15 10 -1 15 -9 4 -13 11 -10 17 8 12 9 13
-45 -4 -110 -35 -266 -99 -400 -165 -138 -67 -190 -95 -359 -190 -41 -22 -75
-41 -77 -41 -2 0 -46 -20 -98 -45 -379 -182 -937 -325 -1221 -313 -93 3 -113
16 -113 69 0 19 -5 61 -10 94 -14 81 -27 204 -25 238 1 15 -2 27 -7 27 -12 0
-27 52 -39 140 -25 172 -47 263 -79 329 -36 78 -180 219 -219 215 -7 -1 -10 2
-7 7 3 5 -2 9 -11 9 -13 0 -15 -5 -10 -17z m45 -27 c0 -3 -4 -8 -10 -11 -5 -3
-10 -1 -10 4 0 6 5 11 10 11 6 0 10 -2 10 -4z m2664 -342 c16 -6 12 -24 -5
-24 -6 0 -8 4 -4 9 3 5 -3 12 -12 14 -10 3 -13 5 -6 6 6 0 18 -2 27 -5z
m-5497 -2466 c-3 -8 -6 -5 -6 6 -1 11 2 17 5 13 3 -3 4 -12 1 -19z m83 12 c0
-5 -5 -10 -11 -10 -5 0 -7 5 -4 10 3 6 8 10 11 10 2 0 4 -4 4 -10z m100 -140
c0 -5 -4 -10 -10 -10 -5 0 -10 5 -10 10 0 6 5 10 10 10 6 0 10 -4 10 -10z
m-67 -7 c-7 -2 -19 -2 -25 0 -7 3 -2 5 12 5 14 0 19 -2 13 -5z m1972 -51 c-3
-3 -11 0 -18 7 -9 10 -8 11 6 5 10 -3 15 -9 12 -12z m669 -169 c48 -38 98 -75
110 -83 12 -8 56 -42 97 -75 41 -34 85 -69 99 -78 14 -10 48 -36 75 -58 28
-22 83 -65 123 -96 39 -30 72 -61 72 -68 0 -6 -25 -25 -55 -40 -30 -16 -55
-33 -55 -37 0 -10 -47 -11 -52 0 -4 10 -134 112 -143 112 -5 0 -150 -87 -213
-128 -11 -7 -11 -23 2 -88 8 -43 18 -87 22 -97 6 -17 -19 -57 -37 -57 -5 0
-30 -14 -56 -30 l-48 -31 -13 53 c-7 29 -19 87 -27 128 -36 190 -45 238 -55
285 -26 121 -60 323 -60 355 1 24 8 41 23 52 27 21 78 47 93 48 6 0 50 -30 98
-67z m-1077 11 c-3 -3 -12 -4 -19 -1 -8 3 -5 6 6 6 11 1 17 -2 13 -5z m-632
-74 c13 -6 15 -9 5 -9 -8 0 -22 4 -30 9 -18 12 -2 12 25 0z m150 0 c-3 -5 -12
-10 -18 -10 -7 0 -6 4 3 10 19 12 23 12 15 0z m101 -8 c-10 -2 -22 0 -28 6 -6
6 0 7 19 4 21 -5 23 -7 9 -10z m-509 2 c-3 -3 -12 -4 -19 -1 -8 3 -5 6 6 6 11
1 17 -2 13 -5z m-23 -15 l70 -2 -32 -16 c-21 -11 -56 -17 -100 -16 -63 0 -67
2 -70 24 -3 22 -1 23 30 17 18 -3 64 -6 102 -7z m21 -48 c-3 -2 -44 -5 -92 -7
-47 -1 -81 1 -76 4 12 8 175 11 168 3z m1369 -63 c22 -80 31 -105 42 -118 6
-8 14 -32 18 -52 4 -21 10 -38 14 -38 4 0 8 -14 9 -32 1 -17 6 -34 10 -37 5
-3 9 -13 11 -21 2 -8 35 -108 74 -222 38 -114 68 -215 66 -225 -2 -10 -28 -25
-72 -40 -82 -28 -81 -29 -115 86 -12 42 -29 90 -36 106 -17 36 -55 154 -55
168 0 6 -9 29 -19 51 -11 23 -34 88 -52 146 -18 58 -36 107 -40 110 -14 9 -22
80 -10 80 7 0 10 3 8 8 -3 4 10 7 28 8 18 0 40 8 50 17 19 20 64 23 69 5z
m-1524 -85 c0 -45 0 -46 -20 -28 -20 18 -29 72 -11 60 5 -3 12 -1 16 5 12 19
15 10 15 -37z m6 -57 c15 5 16 4 5 -4 -10 -7 12 -10 77 -9 50 1 86 5 79 9 -6
4 -7 8 -2 8 17 0 38 -17 28 -23 -10 -7 -146 -7 -195 0 -28 3 -35 8 -31 20 4
10 8 11 13 3 3 -6 15 -8 26 -4z m101 8 c-3 -3 -12 -4 -19 -1 -8 3 -5 6 6 6 11
1 17 -2 13 -5z m143 -4 c-8 -5 -19 -10 -25 -10 -5 0 -3 5 5 10 8 5 20 10 25
10 6 0 3 -5 -5 -10z m824 -7 c39 -9 73 -20 76 -24 3 -3 15 -9 28 -13 20 -7 32
-26 14 -26 -4 0 -16 -29 -26 -65 -19 -66 -33 -78 -56 -50 -7 9 -19 14 -26 11
-7 -3 -16 -1 -18 3 -9 13 -128 21 -169 12 -22 -5 -50 -19 -63 -32 -24 -23 -33
-46 -13 -34 6 4 5 -2 -2 -13 -10 -17 -10 -23 1 -37 19 -22 68 -47 80 -40 6 3
10 2 10 -3 0 -5 42 -12 94 -16 126 -9 189 -30 238 -80 46 -48 62 -100 55 -182
-11 -143 -144 -228 -357 -227 -97 0 -189 17 -240 44 -19 10 -29 18 -21 19 9 0
12 8 9 25 -3 14 -2 25 3 25 4 0 11 15 14 33 14 64 21 69 63 51 20 -8 70 -24
109 -34 69 -17 76 -17 142 -1 77 19 101 37 101 76 0 31 -24 60 -41 49 -7 -4
-9 -3 -5 4 9 15 -26 23 -184 41 -82 10 -155 35 -193 69 -17 15 -17 14 -11 -4
4 -14 4 -16 -4 -5 -6 8 -8 20 -5 28 3 7 -1 13 -9 13 -8 0 -15 6 -16 13 -1 6
-7 42 -15 80 -8 37 -11 67 -7 67 8 0 19 44 23 86 1 12 9 21 17 20 9 -1 15 7
15 19 0 11 6 20 13 20 7 0 16 5 20 11 10 16 80 49 132 62 100 25 135 26 224 5z
m-754 -12 c0 -4 -11 -6 -25 -3 -14 2 -25 6 -25 8 0 2 11 4 25 4 14 0 25 -4 25
-9z m-563 -27 c-3 -3 -12 -4 -19 -1 -8 3 -5 6 6 6 11 1 17 -2 13 -5z m450 -6
c-7 -4 7 -8 31 -9 23 -1 45 -2 50 -4 18 -5 47 -19 52 -25 3 -4 28 -18 55 -31
28 -13 50 -29 50 -34 0 -6 -15 -33 -32 -61 -18 -28 -33 -56 -33 -61 0 -17 -29
-24 -37 -9 -14 23 -63 48 -83 43 -11 -3 -18 -1 -14 4 3 5 -7 14 -21 19 -34 13
-145 13 -145 0 0 -5 5 -10 12 -10 6 0 8 -3 5 -6 -4 -4 -13 -2 -20 5 -11 8 -18
7 -31 -8 -13 -15 -14 -20 -4 -24 10 -4 10 -7 -1 -15 -28 -20 40 -91 75 -78 8
3 14 1 14 -4 0 -4 15 -12 32 -16 18 -3 46 -12 63 -19 98 -41 137 -60 146 -72
6 -7 15 -10 20 -7 5 3 9 -2 9 -10 0 -16 15 -22 23 -8 2 4 2 1 0 -6 -1 -7 2
-23 9 -35 33 -62 23 -184 -21 -246 -12 -17 -19 -35 -16 -41 4 -6 -1 -7 -11 -3
-10 3 -22 0 -28 -8 -15 -19 -61 -39 -90 -39 -12 0 -26 -3 -30 -7 -11 -12 -155
-3 -218 13 -31 8 -68 15 -81 16 -14 1 -23 6 -20 11 3 5 -5 6 -18 2 -17 -4 -20
-3 -10 3 10 7 1 16 -38 35 -29 15 -51 21 -51 15 0 -6 -3 -8 -6 -5 -6 6 25 72
82 177 11 21 11 21 17 1 3 -11 18 -26 34 -33 15 -7 33 -19 39 -27 6 -8 16 -11
21 -8 6 4 16 0 23 -8 8 -10 21 -13 33 -9 12 4 17 2 13 -4 -7 -12 41 -22 111
-22 44 0 58 5 78 25 32 31 31 55 0 90 -20 21 -32 26 -51 21 -15 -4 -23 -3 -20
2 3 6 -9 15 -27 22 -17 6 -40 16 -49 21 -10 5 -25 9 -35 9 -21 0 -163 70 -163
80 0 4 -11 18 -24 31 -13 13 -22 28 -19 35 2 7 0 15 -6 18 -10 6 -6 102 5 135
2 7 -1 20 -7 27 -8 10 -8 14 0 14 6 0 11 6 11 14 0 8 4 17 9 20 5 4 7 -4 5
-16 -4 -17 0 -15 12 8 9 17 38 44 64 60 27 16 46 32 44 35 -2 4 2 7 9 6 6 0
30 1 52 3 l40 3 -45 7 c-31 4 -11 6 62 6 59 0 101 -4 95 -8z m-308 -34 c2 -2
-9 -4 -26 -4 -27 0 -30 -3 -28 -30 2 -30 -8 -39 -20 -19 -4 5 -1 23 5 40 11
24 16 28 39 22 14 -3 28 -7 30 -9z m-133 -8 c18 -19 18 -57 0 -82 -12 -16 -17
-17 -28 -6 -11 11 -10 15 2 25 16 12 20 50 7 63 -4 4 -7 -7 -7 -24 0 -18 -5
-32 -10 -32 -6 0 -8 11 -4 28 12 47 17 51 40 28z m904 -11 c14 -19 14 -19 -2
-6 -10 7 -18 18 -18 24 0 6 1 8 3 6 1 -2 9 -13 17 -24z m-283 9 c-3 -3 -12 -4
-19 -1 -8 3 -5 6 6 6 11 1 17 -2 13 -5z m-497 -24 c0 -5 -5 -10 -11 -10 -5 0
-7 5 -4 10 3 6 8 10 11 10 2 0 4 -4 4 -10z m274 -129 c4 -5 -3 -7 -14 -4 -23
6 -26 13 -6 13 8 0 17 -4 20 -9z m63 -7 c-3 -3 -12 -4 -19 -1 -8 3 -5 6 6 6
11 1 17 -2 13 -5z m-156 -37 c-10 -9 -11 -8 -5 6 3 10 9 15 12 12 3 -3 0 -11
-7 -18z m227 9 c-7 -8 -17 -12 -22 -9 -4 3 -2 9 5 14 22 13 31 11 17 -5z m-53
-5 c3 -5 0 -13 -6 -17 -7 -4 -9 -3 -5 4 4 7 -7 12 -31 15 l-38 4 37 1 c20 1
39 -2 43 -7z m-149 -26 c-8 -8 -18 -15 -22 -15 -3 0 -1 7 6 15 7 8 17 15 22
15 5 0 3 -7 -6 -15z m281 -91 c-3 -3 -12 -4 -19 -1 -8 3 -5 6 6 6 11 1 17 -2
13 -5z m-503 -30 c3 -8 2 -12 -4 -9 -6 3 -10 10 -10 16 0 14 7 11 14 -7z
m-197 -16 c-3 -8 -6 -5 -6 6 -1 11 2 17 5 13 3 -3 4 -12 1 -19z m-57 -68 c0
-5 -4 -10 -10 -10 -5 0 -10 5 -10 10 0 6 5 10 10 10 6 0 10 -4 10 -10z m257
-52 c-3 -8 -6 -5 -6 6 -1 11 2 17 5 13 3 -3 4 -12 1 -19z m-17 -8 c0 -5 -2
-10 -4 -10 -3 0 -8 5 -11 10 -3 6 -1 10 4 10 6 0 11 -4 11 -10z m5 -30 c-3 -5
-11 -10 -16 -10 -6 0 -7 5 -4 10 3 6 11 10 16 10 6 0 7 -4 4 -10z m-305 -36
c0 -21 -17 -17 -23 5 -3 14 -1 18 9 14 8 -3 14 -11 14 -19z m257 -17 c1 -29 1
-30 -8 -9 -5 13 -7 28 -3 33 8 14 9 12 11 -24z m-843 -99 c4 -17 2 -28 -4 -28
-5 0 -10 14 -10 32 0 36 4 35 14 -4z m476 22 c0 -5 -4 -10 -10 -10 -5 0 -10 5
-10 10 0 6 5 10 10 10 6 0 10 -4 10 -10z m70 0 c0 -5 -5 -10 -11 -10 -5 0 -7
5 -4 10 3 6 8 10 11 10 2 0 4 -4 4 -10z m-123 -6 c-3 -3 -12 -4 -19 -1 -8 3
-5 6 6 6 11 1 17 -2 13 -5z m-28 -23 c11 -7 9 -10 -8 -16 -13 -4 -25 -4 -28
-1 -4 3 2 6 13 6 16 0 17 2 4 10 -8 5 -10 10 -5 10 6 0 16 -4 24 -9z m-129 -5
c0 -2 -11 -6 -25 -8 -13 -3 -22 -1 -19 3 5 9 44 13 44 5z m63 -3 c-7 -2 -21
-2 -30 0 -10 3 -4 5 12 5 17 0 24 -2 18 -5z m-988 -43 c3 -5 -1 -10 -10 -10
-9 0 -13 5 -10 10 3 6 8 10 10 10 2 0 7 -4 10 -10z m750 -37 c-2 -10 -4 -21
-4 -25 -1 -5 -39 -5 -61 1 -9 2 44 41 57 41 6 0 10 -8 8 -17z m-634 -1 c-9 -3
-9 -8 0 -18 8 -10 8 -14 0 -14 -6 0 -11 4 -11 9 0 14 -37 24 -52 15 -9 -6 -5
-10 12 -15 l25 -7 -27 -1 c-30 -1 -47 17 -27 30 7 4 31 7 52 6 22 -1 34 -3 28
-5z m-101 -22 c0 -5 -2 -10 -4 -10 -3 0 -8 5 -11 10 -3 6 -1 10 4 10 6 0 11
-4 11 -10z m840 -1 c0 -11 -30 -12 -48 0 -9 5 -3 8 17 9 17 0 31 -4 31 -9z
m-787 -26 c-13 -2 -33 -2 -45 0 -13 2 -3 4 22 4 25 0 35 -2 23 -4z m667 1 c0
-1 -3 -10 -6 -18 -5 -13 -9 -14 -21 -4 -12 10 -18 9 -29 -7 -16 -21 -28 -16
-18 8 3 9 15 17 27 19 28 5 47 5 47 2z m-580 -8 c0 -11 -19 -15 -25 -6 -3 5 1
10 9 10 9 0 16 -2 16 -4z m617 -62 c-3 -3 -12 -4 -19 -1 -8 3 -5 6 6 6 11 1
17 -2 13 -5z m101 -1 c-10 -2 -28 -2 -40 0 -13 2 -5 4 17 4 22 1 32 -1 23 -4z"/>
<path d="M8160 2727 c0 -16 42 -239 48 -256 7 -19 11 -17 82 26 41 25 78 48
82 52 5 4 -31 38 -78 76 -115 93 -134 107 -134 102z"/>
<path d="M9180 6040 c0 -22 5 -40 10 -40 6 0 10 18 10 40 0 22 -4 40 -10 40
-5 0 -10 -18 -10 -40z"/>
<path d="M5243 6063 c9 -2 23 -2 30 0 6 3 -1 5 -18 5 -16 0 -22 -2 -12 -5z"/>
<path d="M9121 6028 c-1 -16 -5 -28 -11 -28 -5 0 -10 -4 -10 -10 0 -5 4 -10
10 -10 12 0 24 44 17 62 -3 7 -6 1 -6 -14z"/>
<path d="M5408 6033 c7 -3 16 -2 19 1 4 3 -2 6 -13 5 -11 0 -14 -3 -6 -6z"/>
<path d="M9011 6024 c0 -11 3 -14 6 -6 3 7 2 16 -1 19 -3 4 -6 -2 -5 -13z"/>
<path d="M9035 6002 c-5 -4 -11 -21 -11 -38 l-2 -32 20 20 c17 17 18 22 7 29
-12 8 -12 11 1 19 8 5 11 10 5 10 -5 0 -14 -4 -20 -8z"/>
<path d="M9041 5784 c0 -11 3 -14 6 -6 3 7 2 16 -1 19 -3 4 -6 -2 -5 -13z"/>
<path d="M12175 5770 c-3 -5 -1 -10 4 -10 6 0 11 5 11 10 0 6 -2 10 -4 10 -3
0 -8 -4 -11 -10z"/>
<path d="M12180 5740 c0 -5 10 -10 23 -11 12 0 16 -3 10 -6 -27 -10 -12 -24
20 -19 17 3 26 3 19 0 -6 -3 -10 -10 -7 -15 4 -5 -1 -6 -10 -3 -14 6 -15 -2
-9 -62 4 -38 11 -77 15 -86 5 -9 13 -49 19 -89 6 -40 15 -78 21 -85 14 -17
-28 -29 -74 -20 -28 5 -34 2 -44 -21 -15 -30 -17 -55 -4 -35 7 11 9 11 14 -2
4 -9 2 -16 -3 -16 -6 0 -10 -12 -10 -26 0 -14 4 -23 9 -20 5 3 14 -1 21 -9 9
-10 9 -15 1 -15 -16 0 -13 -40 3 -46 19 -7 33 -111 18 -135 -9 -13 -7 -25 5
-50 15 -29 17 -31 24 -13 7 17 8 16 8 -6 2 -36 10 -44 61 -60 25 -8 67 -25 95
-38 79 -38 95 -43 95 -29 0 6 -9 71 -21 142 -29 183 -47 299 -58 375 -6 36
-15 92 -20 125 -6 33 -16 100 -22 148 l-12 88 -54 24 c-54 25 -133 34 -133 15z"/>
<path d="M583 5274 c-3 -8 -12 -13 -20 -9 -11 4 -13 1 -9 -11 4 -11 2 -15 -6
-11 -20 7 -139 -80 -240 -174 l-57 -54 9 -50 c5 -27 25 -162 45 -300 48 -343
82 -535 93 -535 4 0 25 17 47 38 43 40 192 156 238 186 45 28 68 49 83 79 8
15 21 27 29 27 21 0 19 16 -4 39 -17 17 -18 26 -11 52 7 23 6 35 -1 40 -7 4
-9 20 -5 42 4 20 2 38 -3 41 -5 4 -8 25 -6 48 2 25 -2 49 -11 62 -7 11 -14 32
-14 46 0 41 -16 57 -40 43 -32 -20 -69 -17 -67 6 0 11 5 17 9 15 4 -3 8 7 7
23 0 17 -3 22 -7 13 -3 -8 -12 30 -19 85 -21 162 -25 178 -39 193 -16 16 -18
32 -4 32 6 0 10 -7 10 -15 0 -8 7 -15 15 -15 15 0 11 23 -7 47 -6 7 -7 17 -3
23 3 5 4 10 0 10 -3 0 -8 -7 -12 -16z m-33 -64 c0 -5 -5 -10 -11 -10 -5 0 -7
5 -4 10 3 6 8 10 11 10 2 0 4 -4 4 -10z"/>
<path d="M631 5261 c-7 -5 -9 -11 -5 -14 5 -3 15 1 22 9 14 16 5 18 -17 5z"/>
<path d="M8325 5200 c3 -5 8 -10 11 -10 2 0 4 5 4 10 0 6 -5 10 -11 10 -5 0
-7 -4 -4 -10z"/>
<path d="M8355 5190 c3 -5 8 -10 11 -10 2 0 4 5 4 10 0 6 -5 10 -11 10 -5 0
-7 -4 -4 -10z"/>
<path d="M11628 4903 c7 -3 16 -2 19 1 4 3 -2 6 -13 5 -11 0 -14 -3 -6 -6z"/>
<path d="M2428 3692 c-4 -12 -2 -20 3 -16 5 3 9 0 9 -7 0 -7 2 -10 5 -7 3 3 2
16 -3 28 l-9 24 -5 -22z"/>
<path d="M2460 3696 c0 -8 4 -17 9 -20 5 -4 7 3 4 14 -6 23 -13 26 -13 6z"/>
<path d="M2500 3685 c0 -5 5 -17 10 -25 5 -8 10 -10 10 -5 0 6 -5 17 -10 25
-5 8 -10 11 -10 5z"/>
<path d="M2507 3634 c-6 -10 9 -42 16 -34 3 3 1 14 -3 24 -3 11 -9 15 -13 10z"/>
<path d="M4325 3629 c-4 -6 -5 -13 -2 -16 7 -7 27 6 27 18 0 12 -17 12 -25 -2z"/>
<path d="M2786 3425 c-9 -26 -7 -32 5 -12 6 10 9 21 6 23 -2 3 -7 -2 -11 -11z"/>
<path d="M4887 3226 c-4 -10 -1 -13 8 -9 8 3 12 9 9 14 -7 12 -11 11 -17 -5z"/>
<path d="M5315 3170 c-14 -6 -6 -9 30 -9 41 -1 53 -6 72 -28 24 -27 31 -17 12
18 -5 11 -14 17 -19 14 -5 -3 -11 -1 -14 3 -7 11 -55 12 -81 2z"/>
<path d="M5364 3135 c11 -8 22 -12 25 -9 6 6 -19 24 -34 24 -5 -1 -1 -7 9 -15z"/>
<path d="M2996 3095 c-9 -26 -7 -32 5 -12 6 10 9 21 6 23 -2 3 -7 -2 -11 -11z"/>
<path d="M5160 3100 c0 -5 5 -10 11 -10 5 0 7 5 4 10 -3 6 -8 10 -11 10 -2 0
-4 -4 -4 -10z"/>
<path d="M3060 3020 c-6 -11 -8 -20 -6 -20 3 0 10 9 16 20 6 11 8 20 6 20 -3
0 -10 -9 -16 -20z"/>
<path d="M5330 3010 c0 -5 15 -17 33 -25 28 -14 30 -14 13 0 -11 8 -24 15 -29
15 -4 0 -5 5 -2 10 3 6 1 10 -4 10 -6 0 -11 -4 -11 -10z"/>
<path d="M5315 2970 c11 -5 27 -9 35 -9 9 0 8 4 -5 9 -11 5 -27 9 -35 9 -9 0
-8 -4 5 -9z"/>
<path d="M5410 2970 c0 -5 5 -10 11 -10 5 0 7 5 4 10 -3 6 -8 10 -11 10 -2 0
-4 -4 -4 -10z"/>
<path d="M5518 2923 c7 -3 16 -2 19 1 4 3 -2 6 -13 5 -11 0 -14 -3 -6 -6z"/>
<path d="M5555 2920 c-3 -5 -1 -10 4 -10 6 0 11 5 11 10 0 6 -2 10 -4 10 -3 0
-8 -4 -11 -10z"/>
<path d="M5600 2920 c-8 -5 -10 -10 -5 -10 6 0 17 5 25 10 8 5 11 10 5 10 -5
0 -17 -5 -25 -10z"/>
<path d="M5460 2910 c0 -5 5 -10 10 -10 6 0 10 5 10 10 0 6 -4 10 -10 10 -5 0
-10 -4 -10 -10z"/>
<path d="M5655 2910 l-30 -8 27 -1 c15 0 30 4 33 9 3 6 5 9 3 9 -2 -1 -16 -5
-33 -9z"/>
<path d="M4811 2894 c0 -11 3 -14 6 -6 3 7 2 16 -1 19 -3 4 -6 -2 -5 -13z"/>
<path d="M4840 2884 c0 -8 5 -12 10 -9 6 4 8 11 5 16 -9 14 -15 11 -15 -7z"/>
<path d="M5695 2890 c3 -5 10 -10 16 -10 5 0 9 5 9 10 0 6 -7 10 -16 10 -8 0
-12 -4 -9 -10z"/>
<path d="M5755 2880 c3 -5 8 -10 11 -10 2 0 4 5 4 10 0 6 -5 10 -11 10 -5 0
-7 -4 -4 -10z"/>
<path d="M5666 2863 c-9 -9 -7 -33 3 -33 12 0 22 28 12 34 -5 3 -11 3 -15 -1z"/>
<path d="M5868 2858 c9 -9 15 -9 24 0 9 9 7 12 -12 12 -19 0 -21 -3 -12 -12z"/>
<path d="M5738 2853 c7 -3 16 -2 19 1 4 3 -2 6 -13 5 -11 0 -14 -3 -6 -6z"/>
<path d="M5989 2853 c12 -4 12 -6 0 -14 -9 -6 7 -8 44 -5 70 4 88 16 26 16
-24 0 -53 2 -64 4 -11 2 -14 1 -6 -1z"/>
<path d="M5930 2840 c0 -5 7 -10 16 -10 8 0 12 5 9 10 -3 6 -10 10 -16 10 -5
0 -9 -4 -9 -10z"/>
<path d="M5919 2817 c5 -5 19 -7 32 -5 20 3 19 5 -9 9 -20 3 -29 2 -23 -4z"/>
<path d="M5814 2804 c5 -13 1 -15 -23 -12 -17 2 -28 1 -25 -4 3 -4 12 -8 20
-8 9 0 24 -10 35 -22 l18 -23 1 22 c0 19 7 22 48 26 l47 3 -52 2 c-40 2 -53 6
-53 17 0 8 -5 15 -11 15 -6 0 -8 -7 -5 -16z"/>
<path d="M5341 2784 c0 -11 3 -14 6 -6 3 7 2 16 -1 19 -3 4 -6 -2 -5 -13z"/>
<path d="M5146 2751 c16 -17 61 -23 69 -11 5 9 1 10 -13 6 -11 -4 -23 -2 -27
4 -3 5 -14 10 -23 10 -10 0 -12 -3 -6 -9z"/>
<path d="M5265 2720 c3 -5 11 -10 16 -10 6 0 7 5 4 10 -3 6 -11 10 -16 10 -6
0 -7 -4 -4 -10z"/>
<path d="M5150 2716 c0 -2 7 -7 16 -10 8 -3 12 -2 9 4 -6 10 -25 14 -25 6z"/>
<path d="M5225 2706 c11 -8 24 -12 28 -9 11 7 -12 23 -32 23 -11 0 -9 -4 4
-14z"/>
<path d="M5085 2690 c-3 -5 -1 -10 4 -10 6 0 11 5 11 10 0 6 -2 10 -4 10 -3 0
-8 -4 -11 -10z"/>
<path d="M4650 2656 c0 -8 4 -17 9 -20 5 -4 7 3 4 14 -6 23 -13 26 -13 6z"/>
<path d="M5061 2654 c0 -11 3 -14 6 -6 3 7 2 16 -1 19 -3 4 -6 -2 -5 -13z"/>
<path d="M5285 2640 c-3 -6 1 -7 9 -4 18 7 21 14 7 14 -6 0 -13 -4 -16 -10z"/>
<path d="M4570 2630 c0 -5 5 -10 10 -10 6 0 10 5 10 10 0 6 -4 10 -10 10 -5 0
-10 -4 -10 -10z"/>
<path d="M5316 2625 c-3 -9 -6 -22 -5 -28 0 -7 5 -1 10 12 5 13 8 26 5 28 -2
2 -6 -3 -10 -12z"/>
<path d="M5730 2633 c0 -3 7 -15 16 -25 13 -14 14 -21 5 -32 -8 -10 -9 -16 -1
-21 5 -3 10 -2 10 3 0 5 9 12 21 15 12 3 18 10 15 15 -3 6 3 8 16 6 16 -3 14
0 -9 13 -18 9 -33 20 -33 25 0 4 -9 8 -20 8 -11 0 -20 -3 -20 -7z"/>
<path d="M4580 2610 c-23 -7 -23 -8 -3 -9 12 -1 25 4 28 9 3 6 5 10 3 9 -2 -1
-14 -5 -28 -9z"/>
<path d="M5266 2603 c-6 -14 -5 -15 5 -6 7 7 10 15 7 18 -3 3 -9 -2 -12 -12z"/>
<path d="M5045 2559 c-4 -6 -5 -12 -2 -15 2 -3 7 2 10 11 7 17 1 20 -8 4z"/>
<path d="M5772 2550 c2 -8 19 -16 37 -17 31 -3 31 -2 15 14 -13 13 -18 15 -22
5 -3 -10 -7 -10 -20 0 -13 11 -14 11 -10 -2z"/>
<path d="M4852 2541 c-8 -5 -12 -16 -10 -25 2 -12 6 -10 15 9 6 14 10 25 10
25 -1 0 -8 -4 -15 -9z"/>
<path d="M5257 2536 c-4 -10 -5 -21 -2 -24 9 -9 17 6 13 25 -3 17 -4 17 -11
-1z"/>
<path d="M5600 2539 c0 -5 5 -7 10 -4 6 3 10 8 10 11 0 2 -4 4 -10 4 -5 0 -10
-5 -10 -11z"/>
<path d="M5557 2521 c-3 -15 -1 -18 11 -14 11 5 14 1 10 -14 -3 -12 -2 -26 2
-33 5 -8 10 -2 14 16 5 18 3 30 -3 32 -6 2 -11 10 -11 18 0 21 -17 17 -23 -5z"/>
<path d="M4812 2500 c0 -14 2 -19 5 -12 2 6 2 18 0 25 -3 6 -5 1 -5 -13z"/>
<path d="M5240 2488 c0 -9 5 -20 10 -23 13 -8 13 5 0 25 -8 13 -10 13 -10 -2z"/>
<path d="M5271 2464 c0 -11 3 -14 6 -6 3 7 2 16 -1 19 -3 4 -6 -2 -5 -13z"/>
<path d="M5463 2460 c-1 -11 4 -20 10 -20 7 0 13 9 13 20 0 11 -5 20 -11 20
-6 0 -11 -9 -12 -20z"/>
<path d="M5556 2456 c3 -13 2 -31 -2 -38 -9 -14 -10 -19 -12 -55 -1 -13 -6
-23 -11 -23 -5 0 -7 10 -5 23 2 12 2 16 -2 10 -3 -7 -12 -13 -20 -13 -8 0 -14
6 -14 13 0 6 -6 3 -12 -8 -6 -11 -18 -26 -26 -32 -10 -8 -11 -13 -4 -13 7 0
12 -6 12 -14 0 -8 5 -16 12 -18 29 -10 -5 -23 -49 -19 -40 4 -44 5 -23 12 23
6 23 7 3 8 -12 1 -29 -6 -38 -16 -10 -10 -19 -12 -23 -6 -5 6 -18 3 -37 -8
l-30 -19 83 0 c72 0 82 -2 81 -17 0 -12 -2 -13 -6 -5 -4 10 -10 10 -29 -3 -15
-10 -33 -13 -46 -9 -14 4 -18 2 -14 -5 5 -7 -6 -11 -31 -11 -28 0 -34 -3 -23
-10 11 -7 7 -10 -17 -10 -18 0 -33 -5 -33 -11 0 -5 5 -7 11 -4 6 4 9 0 7 -11
-2 -11 2 -18 10 -16 6 1 12 -2 12 -8 0 -21 20 -9 26 15 7 27 32 33 52 13 21
-21 13 -38 -18 -38 -20 0 -30 -5 -30 -15 0 -24 46 -18 76 10 19 17 31 22 39
15 13 -11 25 -3 25 17 0 7 -10 14 -22 14 -21 1 -21 2 -3 6 11 3 24 10 28 17 6
7 7 4 3 -6 -4 -14 1 -18 24 -18 22 0 28 4 24 15 -3 8 1 24 10 37 9 12 16 27
16 33 0 5 -5 3 -10 -5 -8 -12 -10 -10 -10 8 0 13 -5 32 -10 43 -8 15 -7 19 4
19 8 0 19 -8 25 -17 8 -15 10 -13 15 12 4 17 12 49 20 72 7 24 10 40 5 38 -4
-3 -5 10 -2 29 3 20 1 36 -6 41 -8 5 -10 -1 -5 -19z m-99 -248 c-3 -7 -5 -2
-5 12 0 14 2 19 5 13 2 -7 2 -19 0 -25z m35 2 c-2 -16 -6 -30 -8 -30 -2 0 -4
14 -4 30 0 17 4 30 8 30 5 0 7 -13 4 -30z"/>
<path d="M4746 2455 c-11 -8 -15 -15 -9 -15 6 0 16 7 23 15 16 19 11 19 -14 0z"/>
<path d="M5532 2445 c0 -16 2 -22 5 -12 2 9 2 23 0 30 -3 6 -5 -1 -5 -18z"/>
<path d="M5232 2430 c0 -19 2 -27 5 -17 2 9 2 25 0 35 -3 9 -5 1 -5 -18z"/>
<path d="M4990 2439 c0 -5 5 -7 10 -4 6 3 10 8 10 11 0 2 -4 4 -10 4 -5 0 -10
-5 -10 -11z"/>
<path d="M5220 2360 c0 -5 5 -10 10 -10 6 0 10 5 10 10 0 6 -4 10 -10 10 -5 0
-10 -4 -10 -10z"/>
<path d="M5201 2334 c0 -11 3 -14 6 -6 3 7 2 16 -1 19 -3 4 -6 -2 -5 -13z"/>
<path d="M5232 2310 c-15 -24 -16 -40 -2 -40 6 0 10 7 10 15 0 8 5 15 10 15 6
0 10 7 10 15 0 21 -13 19 -28 -5z"/>
<path d="M4582 2300 c0 -14 2 -19 5 -12 2 6 2 18 0 25 -3 6 -5 1 -5 -13z"/>
<path d="M5161 2304 c0 -11 3 -14 6 -6 3 7 2 16 -1 19 -3 4 -6 -2 -5 -13z"/>
<path d="M5720 2275 c0 -5 5 -17 10 -25 5 -8 10 -10 10 -5 0 6 -5 17 -10 25
-5 8 -10 11 -10 5z"/>
<path d="M4591 2254 c0 -11 3 -14 6 -6 3 7 2 16 -1 19 -3 4 -6 -2 -5 -13z"/>
<path d="M5245 2250 c-3 -5 1 -10 9 -10 9 0 16 5 16 10 0 6 -4 10 -9 10 -6 0
-13 -4 -16 -10z"/>
<path d="M5146 2224 c-4 -15 -3 -31 3 -37 5 -5 7 -16 4 -23 -3 -7 2 -21 11
-29 17 -17 23 -50 7 -41 -5 3 -11 -1 -14 -9 -4 -10 -1 -12 11 -8 15 6 16 5 2
-12 -14 -17 -13 -18 4 -12 14 5 17 3 13 -8 -4 -8 -2 -17 3 -20 6 -4 10 3 10
15 0 12 4 18 10 15 6 -4 8 -15 5 -26 -5 -13 -2 -19 10 -19 9 0 14 -3 12 -7 -3
-5 6 -8 19 -8 13 0 24 6 24 13 0 6 -8 12 -17 12 -13 0 -14 3 -6 11 17 17 5 43
-13 28 -11 -9 -14 -8 -14 1 0 7 -8 10 -20 7 -17 -4 -19 -1 -14 18 4 14 -1 33
-10 47 -17 25 -21 58 -7 58 12 0 -2 53 -16 57 -6 2 -14 -8 -17 -23z m20 -32
c-12 -11 -18 7 -10 30 l8 23 4 -23 c2 -13 1 -26 -2 -30z"/>
<path d="M5191 2164 c0 -11 3 -14 6 -6 3 7 2 16 -1 19 -3 4 -6 -2 -5 -13z"/>
<path d="M3997 2149 c7 -7 15 -10 18 -7 3 3 -2 9 -12 12 -14 6 -15 5 -6 -5z"/>
<path d="M4911 2144 c0 -11 3 -14 6 -6 3 7 2 16 -1 19 -3 4 -6 -2 -5 -13z"/>
<path d="M5452 2111 c-6 -16 -8 -32 -5 -35 4 -3 1 -6 -5 -6 -7 0 -12 7 -12 15
0 8 -7 15 -15 15 -19 0 -19 -9 1 -31 14 -16 14 -19 -3 -38 -20 -24 -35 -28
-27 -6 4 8 1 15 -5 15 -6 0 -11 -7 -11 -15 0 -11 -11 -15 -40 -15 -30 0 -40
-4 -40 -16 0 -12 5 -14 18 -9 36 16 65 18 57 6 -17 -28 52 19 80 54 41 52 48
64 41 81 -9 23 -23 16 -34 -15z m19 -18 c-8 -15 -10 -15 -11 -2 0 17 10 32 18
25 2 -3 -1 -13 -7 -23z"/>
<path d="M4950 2105 c0 -11 5 -27 10 -35 8 -12 10 -12 10 5 0 11 -5 27 -10 35
-8 12 -10 12 -10 -5z"/>
<path d="M4598 2093 c7 -3 16 -2 19 1 4 3 -2 6 -13 5 -11 0 -14 -3 -6 -6z"/>
<path d="M4146 2067 c3 -10 9 -15 12 -12 3 3 0 11 -7 18 -10 9 -11 8 -5 -6z"/>
<path d="M5365 2070 c-3 -5 -17 -10 -31 -10 -14 0 -22 -4 -19 -10 3 -5 15 -10
26 -10 10 0 19 5 19 10 0 14 28 12 33 -2 2 -7 8 -10 12 -6 11 11 -2 38 -19 38
-8 0 -18 -4 -21 -10z"/>
<path d="M4122 2050 c7 -10 14 -18 15 -16 6 6 -9 36 -18 36 -5 0 -4 -9 3 -20z"/>
<path d="M4156 2017 c3 -10 9 -15 12 -12 3 3 0 11 -7 18 -10 9 -11 8 -5 -6z"/>
<path d="M4974 1968 c1 -43 1 -43 38 -43 20 -1 34 3 32 7 -3 5 -10 5 -16 2 -8
-5 -9 -1 -5 10 5 11 3 15 -5 10 -8 -5 -9 -1 -4 12 4 10 4 15 0 11 -9 -9 -35
13 -28 24 3 5 1 9 -4 9 -5 0 -8 -19 -8 -42z m30 -14 c9 -24 7 -27 -9 -10 -17
17 -19 26 -6 26 5 0 12 -7 15 -16z"/>
<path d="M5050 1900 c0 -5 5 -10 10 -10 6 0 10 5 10 10 0 6 -4 10 -10 10 -5 0
-10 -4 -10 -10z"/>
<path d="M4000 1890 c0 -5 5 -10 11 -10 5 0 7 5 4 10 -3 6 -8 10 -11 10 -2 0
-4 -4 -4 -10z"/>
<path d="M4450 1890 c0 -5 5 -10 10 -10 6 0 10 5 10 10 0 6 -4 10 -10 10 -5 0
-10 -4 -10 -10z"/>
<path d="M4160 1879 c0 -8 10 -20 22 -28 28 -17 82 -25 73 -10 -4 5 -15 7 -26
4 -15 -5 -18 -3 -13 12 5 15 4 16 -5 3 -10 -13 -14 -12 -31 9 -12 14 -20 18
-20 10z"/>
<path d="M5060 1880 c-8 -5 -11 -12 -7 -16 4 -4 15 0 24 9 18 18 8 23 -17 7z"/>
<path d="M4145 1840 c3 -5 8 -10 11 -10 2 0 4 5 4 10 0 6 -5 10 -11 10 -5 0
-7 -4 -4 -10z"/>
<path d="M4482 1838 c2 -6 11 -13 19 -16 11 -3 11 -1 -1 8 -12 10 -11 11 8 7
12 -3 20 -1 16 4 -8 13 -46 11 -42 -3z"/>
<path d="M5100 1816 c0 -14 4 -27 9 -31 12 -7 25 31 16 45 -11 18 -25 10 -25
-14z"/>
<path d="M4127 1819 c6 -6 9 -18 6 -25 -3 -8 -1 -14 5 -14 5 0 12 6 15 14 6
14 -10 36 -27 36 -6 0 -5 -5 1 -11z"/>
<path d="M4605 1807 c-4 -10 -5 -21 -1 -24 10 -10 18 4 13 24 -4 17 -4 17 -12
0z"/>
<path d="M4540 1800 c-9 -6 -10 -10 -3 -10 6 0 15 5 18 10 8 12 4 12 -15 0z"/>
<path d="M4645 1795 c-3 -8 -7 -21 -9 -29 -3 -9 5 -16 20 -19 19 -3 22 -1 13
9 -8 10 -5 16 10 26 12 7 21 16 21 20 0 15 -51 8 -55 -7z"/>
<path d="M4305 1788 c-18 -8 -18 -8 3 -4 14 3 22 -1 22 -10 0 -8 5 -14 10 -14
14 0 12 27 -2 33 -7 2 -22 0 -33 -5z"/>
<path d="M4172 1770 c13 -20 28 -27 28 -12 0 10 -22 32 -32 32 -5 0 -3 -9 4
-20z"/>
<path d="M4238 1770 c24 -10 30 -22 10 -19 -26 3 -39 -1 -33 -12 4 -6 14 -8
23 -4 8 3 19 0 24 -7 6 -10 8 -8 8 5 0 9 7 17 15 17 8 0 15 4 15 10 0 5 -6 7
-14 4 -8 -3 -17 -1 -21 5 -3 6 -16 11 -28 10 l-22 0 23 -9z"/>
<path d="M4800 1770 c0 -5 5 -10 11 -10 5 0 7 5 4 10 -3 6 -8 10 -11 10 -2 0
-4 -4 -4 -10z"/>
<path d="M4758 1753 c7 -3 16 -2 19 1 4 3 -2 6 -13 5 -11 0 -14 -3 -6 -6z"/>
<path d="M4701 1747 c10 -11 99 -36 99 -27 0 4 -16 11 -36 14 -19 4 -43 10
-52 13 -9 3 -14 3 -11 0z"/>
<path d="M4815 1739 c-11 -17 0 -20 21 -4 17 13 17 14 2 15 -9 0 -20 -5 -23
-11z"/>
<path d="M4707 1719 c7 -7 15 -10 18 -7 3 3 -2 9 -12 12 -14 6 -15 5 -6 -5z"/>
<path d="M4780 1696 c0 -2 7 -6 15 -10 8 -3 15 -1 15 4 0 6 -7 10 -15 10 -8 0
-15 -2 -15 -4z"/>
<path d="M4858 1658 c-10 -7 -9 -8 4 -4 10 3 20 1 23 -4 8 -12 35 -13 35 -1 0
13 -47 19 -62 9z"/>
</g>
</svg>
