<?xml version="1.0" encoding="UTF-8"?>
<!DOCTYPE svg PUBLIC "-//W3C//DTD SVG 1.1//EN" "http://www.w3.org/Graphics/SVG/1.1/DTD/svg11.dtd">
<!-- Creator: CorelDRAW -->
<svg xmlns="http://www.w3.org/2000/svg" xml:space="preserve" width="2048px" height="2048px" style="shape-rendering:geometricPrecision; text-rendering:geometricPrecision; image-rendering:optimizeQuality; fill-rule:evenodd; clip-rule:evenodd"
viewBox="0 0 2048 2048"
 xmlns:xlink="http://www.w3.org/1999/xlink">
 <defs>
  <style type="text/css">
   <![CDATA[
    .fil1 {fill:none}
    .fil0 {fill:#212121;fill-rule:nonzero}
   ]]>
  </style>
 </defs>
 <g id="Layer_x0020_1">
  <metadata id="CorelCorpID_0Corel-Layer"/>
  <path class="fil0" d="M671.999 255.998l704.001 0c44.0327,0 84.0414,17.9917 113.026,46.9748 28.9831,28.9843 46.9748,68.993 46.9748,113.026l0 95.9977c0,17.6728 -14.328,32.0008 -32.0008,32.0008l-16.0618 0 0 960 16.0618 0c17.6728,0 32.0008,14.328 32.0008,32.0008l0 96.0024c0,44.0327 -17.9917,84.0414 -46.9748,113.026 -28.9843,28.9831 -68.993,46.9748 -113.026,46.9748l-704.001 0c-44.0327,0 -84.0414,-17.9917 -113.026,-46.9748 -28.9831,-28.9843 -46.9748,-68.993 -46.9748,-113.026l0 -96.0024c0,-17.6728 14.328,-32.0008 32.0008,-32.0008l16.0606 0 0 -960 -16.0606 0c-17.6728,0 -32.0008,-14.328 -32.0008,-32.0008l0 -95.9977c0,-44.0327 17.9917,-84.0414 46.9748,-113.026 28.9843,-28.9831 68.993,-46.9748 113.026,-46.9748zm704.001 64.0016l-704.001 0c-26.3669,0 -50.3611,10.8095 -67.7752,28.2236 -17.4142,17.4142 -28.2236,41.4083 -28.2236,67.7752l0 63.9969 16.0606 0c17.6728,0 32.0008,14.328 32.0008,32.0008l0 1024c0,17.6728 -14.328,32.0008 -32.0008,32.0008l-16.0606 0 0 64.0016c0,26.3669 10.8095,50.3611 28.2236,67.7752 17.4142,17.4142 41.4083,28.2236 67.7752,28.2236l704.001 0c26.3669,0 50.3611,-10.8095 67.7752,-28.2236 17.4142,-17.4142 28.2236,-41.4083 28.2236,-67.7752l0 -64.0016 -16.0618 0c-17.6728,0 -32.0008,-14.328 -32.0008,-32.0008l0 -1024c0,-17.6728 14.328,-32.0008 32.0008,-32.0008l16.0618 0 0 -63.9969c0,-26.3669 -10.8095,-50.3611 -28.2236,-67.7752 -17.4142,-17.4142 -41.4083,-28.2236 -67.7752,-28.2236z"/>
  <path class="fil0" d="M550.966 479.998c-17.6728,0 -32.0008,14.328 -32.0008,32.0008 0,17.6728 14.328,32.0008 32.0008,32.0008l473.801 0 472.269 0c17.6728,0 32.0008,-14.328 32.0008,-32.0008 0,-17.6728 -14.328,-32.0008 -32.0008,-32.0008l-472.269 0 -473.801 0z"/>
  <path class="fil0" d="M550.966 1504c-17.6728,0 -32.0008,14.328 -32.0008,32.0008 0,17.6728 14.328,32.0008 32.0008,32.0008l473.801 0 472.269 0c17.6728,0 32.0008,-14.328 32.0008,-32.0008 0,-17.6728 -14.328,-32.0008 -32.0008,-32.0008l-472.269 0 -473.801 0z"/>
  <path class="fil0" d="M895.999 367.998c-17.6728,0 -32.0008,14.328 -32.0008,32.0008 0,17.6728 14.328,32.0008 32.0008,32.0008l256.002 0c17.6728,0 32.0008,-14.328 32.0008,-32.0008 0,-17.6728 -14.328,-32.0008 -32.0008,-32.0008l-256.002 0z"/>
  <path class="fil0" d="M971.672 1616c-17.6728,0 -32.0008,14.328 -32.0008,32.0008 0,17.6728 14.328,32.0008 32.0008,32.0008l104.655 0c17.6728,0 32.0008,-14.328 32.0008,-32.0008 0,-17.6728 -14.328,-32.0008 -32.0008,-32.0008l-104.655 0z"/>
  <path class="fil0" d="M703.999 775.466l640.002 0c17.6728,0 32.0008,14.328 32.0008,32.0008l0 492.31c0,17.6728 -14.328,32.0008 -32.0008,32.0008l-640.002 0c-17.6728,0 -32.0008,-14.328 -32.0008,-32.0008l0 -492.31c0,-17.6728 14.328,-32.0008 32.0008,-32.0008zm608.001 64.0016l-576 0 0 428.308 576 0 0 -428.308z"/>
  <path class="fil0" d="M883.692 748.223c0,-17.6728 -14.328,-32.0008 -32.0008,-32.0008 -17.6728,0 -32.0008,14.328 -32.0008,32.0008l0 118.489c0,17.6728 14.328,32.0008 32.0008,32.0008 17.6728,0 32.0008,-14.328 32.0008,-32.0008l0 -118.489z"/>
  <path class="fil0" d="M1230.36 748.223c0,-17.6728 -14.328,-32.0008 -32.0008,-32.0008 -17.6728,0 -32.0008,14.328 -32.0008,32.0008l0 118.489c0,17.6728 14.328,32.0008 32.0008,32.0008 17.6728,0 32.0008,-14.328 32.0008,-32.0008l0 -118.489z"/>
  <path class="fil0" d="M703.999 927.999c-17.6728,0 -32.0008,14.328 -32.0008,32.0008 0,17.6728 14.328,32.0008 32.0008,32.0008l640.002 0c17.6728,0 32.0008,-14.328 32.0008,-32.0008 0,-17.6728 -14.328,-32.0008 -32.0008,-32.0008l-640.002 0z"/>
  <path class="fil0" d="M925.626 1094.99l-50.9374 -9.12166c4.24489,-16.2118 12.3732,-28.6748 24.4299,-37.3004 12.0567,-8.62442 29.0811,-12.9602 51.1181,-12.9602 25.3335,0 43.6217,4.69607 54.9107,14.1343 11.289,9.4382 16.9347,21.3142 16.9347,35.5843 0,8.39883 -2.30315,15.9851 -6.86457,22.7587 -4.6063,6.81851 -11.5146,12.7795 -20.7721,17.8819 7.49646,1.85197 13.2307,4.01929 17.2051,6.45827 6.41221,3.97323 11.4248,9.21142 14.9917,15.7146 3.56811,6.45709 5.37402,14.1791 5.37402,23.211 0,11.289 -2.9811,22.0819 -8.85119,32.4673 -5.91497,10.3417 -14.4496,18.3343 -25.5591,23.9339 -11.1083,5.59961 -25.6937,8.39883 -43.8024,8.39883 -17.6114,0 -31.5189,-2.07756 -41.7248,-6.18662 -10.2059,-4.15394 -18.5599,-10.2508 -25.1528,-18.1984 -6.54804,-7.99253 -11.6055,-18.0177 -15.1276,-30.1193l53.8276 -7.13504c2.12244,10.8378 5.4189,18.3791 9.88938,22.578 4.42559,4.15512 10.115,6.27756 16.9795,6.27756 7.22481,0 13.2756,-2.66457 18.0626,-7.94764 4.78583,-5.28307 7.22481,-12.3732 7.22481,-21.1784 0,-8.98701 -2.34803,-15.9414 -6.95434,-20.9079 -4.65118,-4.92284 -10.9276,-7.4067 -18.8752,-7.4067 -4.2,0 -10.0252,1.08425 -17.4307,3.16181l2.75433 -38.4744c3.02599,0.452363 5.32914,0.677953 6.99922,0.677953 7.09016,0 12.9602,-2.25827 17.7012,-6.77363 4.69725,-4.47048 7.04528,-9.8445 7.04528,-15.9862 0,-5.91497 -1.76102,-10.6571 -5.28307,-14.1791 -3.52323,-3.52205 -8.35512,-5.28307 -14.5406,-5.28307 -6.36733,0 -11.5158,1.94173 -15.489,5.73544 -3.97441,3.8374 -6.63898,10.5661 -8.08347,20.1851zm250.576 -59.3823l0 197.247 -54.5044 0 0 -129.24c-8.80512,6.68386 -17.3398,12.1028 -25.604,16.2567 -8.21812,4.15394 -18.5599,8.12835 -31.0229,11.9221l0 -44.2099c18.3791,-5.91497 32.6032,-13.0051 42.7642,-21.2681 10.115,-8.30906 18.0626,-18.5599 23.7969,-30.7075l44.5701 0z"/>
 </g>
 <rect class="fil1" width="2048" height="2048"/>
</svg>
